<svg width="91" height="30" viewBox="0 0 91 30" fill="none" xmlns="http://www.w3.org/2000/svg">
<path fill-rule="evenodd" clip-rule="evenodd" d="M12.114 19.6742L16.9443 19.7711L16.981 20.1676L8 22L15.0167 6L22 21.9263H19.1995L15.0416 12.2442L12.114 19.6742Z" fill="#505759"/>
<path d="M0.742587 15.8796L0.742494 0.742713L15.1393 0.747033L15.1401 0.747033C20.6936 0.742709 23.6255 3.31005 24.9254 4.51176C30.5413 9.96956 30.7211 19 25.3245 24.682C19.9076 30.3854 10.6841 30.8854 5.08942 25.4549L5.07218 25.4382L5.0539 25.4226C3.8734 24.4164 0.968548 21.3636 0.742587 15.8796Z" stroke="#505759" stroke-width="1.48498"/>
<path d="M36.0574 14.1455C35.3764 13.6508 35.0359 12.9519 35.0359 12.0487C35.0359 11.1454 35.3764 10.4518 36.0574 9.96795C36.7435 9.48406 37.6257 9.24212 38.7039 9.24212H41.2653C41.2653 8.61307 41.1389 8.17488 40.8861 7.92756C40.6334 7.68024 40.1897 7.55658 39.5551 7.55658C38.9257 7.55658 38.4821 7.72057 38.2241 8.04853C37.9713 8.37112 37.6592 8.53242 37.2878 8.53242H36.1348C35.9955 8.53242 35.8794 8.48672 35.7865 8.39532C35.6988 8.29854 35.655 8.18026 35.655 8.04047C35.655 6.49741 37.0608 5.72589 39.8724 5.72589C41.1002 5.72589 42.0856 6.01353 42.8285 6.58881C43.5714 7.15872 43.9428 8.04316 43.9428 9.24212V14.2342C43.9428 14.3794 43.899 14.4976 43.8113 14.589C43.7236 14.6804 43.6101 14.7261 43.4708 14.7261H41.9773C41.838 14.7261 41.7245 14.6804 41.6368 14.589C41.5491 14.4923 41.5052 14.374 41.5052 14.2342V13.9842C40.6901 14.5917 39.7486 14.8928 38.6807 14.8874C37.618 14.8874 36.7435 14.6401 36.0574 14.1455ZM38.8896 11.0728C38.5285 11.0728 38.2422 11.1642 38.0307 11.347C37.8243 11.5298 37.7211 11.7664 37.7211 12.0567C37.7211 12.347 37.8295 12.5863 38.0462 12.7745C38.2628 12.9627 38.5698 13.0567 38.967 13.0567C39.7615 13.0567 40.5276 12.8148 41.2653 12.3309V11.0728H38.8896Z" fill="#505759"/>
<path d="M52.5123 7.93563L51.3206 7.88724C50.6241 7.88724 49.9586 8.2851 49.3241 9.08082V14.2342C49.3241 14.3794 49.2777 14.4976 49.1848 14.589C49.0971 14.6804 48.9862 14.7261 48.852 14.7261H47.1186C46.9794 14.7261 46.8659 14.6804 46.7782 14.589C46.6905 14.4976 46.6466 14.3794 46.6466 14.2342V6.3872C46.6466 6.24203 46.6905 6.12375 46.7782 6.03235C46.871 5.93557 46.9845 5.88718 47.1186 5.88718H48.852C48.9913 5.88718 49.1048 5.93557 49.1925 6.03235C49.2802 6.12375 49.3241 6.24203 49.3241 6.3872V6.89528C49.8503 6.49741 50.3559 6.20439 50.8408 6.01622C51.3309 5.82266 51.9706 5.72589 52.7599 5.72589C52.8992 5.72589 53.0127 5.77427 53.1004 5.87105C53.1933 5.96245 53.2397 6.07805 53.2397 6.21784V7.44368C53.2397 7.58884 53.1933 7.70713 53.1004 7.79853C53.0127 7.88993 52.8992 7.93563 52.7599 7.93563H52.5123Z" fill="#505759"/>
<path d="M55.1465 3.66131C55.1465 3.51614 55.1903 3.39786 55.278 3.30646C55.3709 3.20968 55.4844 3.1613 55.6185 3.1613H57.3519C57.486 3.1613 57.597 3.20968 57.6847 3.30646C57.7775 3.39786 57.8239 3.51614 57.8239 3.66131V6.13719C58.6597 5.86299 59.4052 5.72589 60.0603 5.72589C61.3294 5.72589 62.338 6.12106 63.0861 6.9114C63.8341 7.69637 64.2081 8.83082 64.2081 10.3147C64.2081 13.3632 62.5702 14.8874 59.2942 14.8874C58.5462 14.8874 57.7698 14.8014 56.965 14.6294C56.1653 14.4519 55.5592 14.2369 55.1465 13.9842V3.66131ZM57.8239 8.00015V12.7583C58.2676 12.882 58.8325 12.9438 59.5187 12.9438C60.2048 12.9438 60.6975 12.7368 60.9967 12.3229C61.3011 11.9089 61.4533 11.2395 61.4533 10.3147C61.4533 9.38997 61.3036 8.7206 61.0044 8.30661C60.7104 7.88724 60.2099 7.67756 59.5032 7.67756C59.0492 7.67756 58.4894 7.78509 57.8239 8.00015Z" fill="#505759"/>
<path d="M66.4321 4.20165V3.92745C66.4321 3.64249 66.5095 3.41668 66.6643 3.25001C66.8242 3.08334 67.0435 3 67.3221 3H68.2816C68.555 3 68.7717 3.08334 68.9316 3.25001C69.0916 3.4113 69.1715 3.63712 69.1715 3.92745V4.20165C69.1715 4.4866 69.0916 4.71242 68.9316 4.87909C68.7769 5.04576 68.5602 5.12909 68.2816 5.12909H67.3221C67.0486 5.12909 66.832 5.04576 66.672 4.87909C66.5121 4.71242 66.4321 4.4866 66.4321 4.20165ZM66.4631 14.2342V6.58075C66.4631 6.43558 66.5069 6.3173 66.5946 6.2259C66.6875 6.1345 66.801 6.0888 66.9351 6.0888H68.6685C68.8078 6.0888 68.9213 6.13719 69.009 6.23397C69.0967 6.32537 69.1406 6.44096 69.1406 6.58075V14.2342C69.1406 14.3794 69.0941 14.4976 69.0013 14.589C68.9136 14.6804 68.8027 14.7261 68.6685 14.7261H66.9351C66.7958 14.7261 66.6823 14.6804 66.5946 14.589C66.5069 14.4976 66.4631 14.3794 66.4631 14.2342Z" fill="#505759"/>
<path d="M73.5468 12.1132C74.2433 12.1132 74.5915 12.4788 74.5915 13.21V13.7181C74.5915 14.0568 74.5012 14.3229 74.3207 14.5165C74.1453 14.71 73.8873 14.8068 73.5468 14.8068H72.595C72.2545 14.8068 71.994 14.71 71.8134 14.5165C71.638 14.3229 71.5503 14.0568 71.5503 13.7181V13.21C71.5503 12.8551 71.6406 12.5836 71.8212 12.3954C72.0017 12.2073 72.2597 12.1132 72.595 12.1132H73.5468ZM72.595 8.41951C71.8985 8.41951 71.5503 8.05391 71.5503 7.32271V6.81463C71.5503 6.47591 71.6406 6.20977 71.8212 6.01622C72.0017 5.82266 72.2597 5.72589 72.595 5.72589H73.5468C73.8873 5.72589 74.1453 5.82266 74.3207 6.01622C74.5012 6.20977 74.5915 6.47591 74.5915 6.81463V7.32271C74.5915 8.05391 74.2433 8.41951 73.5468 8.41951H72.595Z" fill="#505759"/>
<path d="M76.978 14.2342V6.3872C76.978 6.24203 77.0219 6.12375 77.1096 6.03235C77.2024 5.93557 77.3159 5.88718 77.4501 5.88718H79.1835C79.3228 5.88718 79.4363 5.93557 79.524 6.03235C79.6117 6.12375 79.6555 6.24203 79.6555 6.3872V6.89528C80.027 6.51892 80.3907 6.23128 80.7466 6.03235C81.1077 5.82804 81.5411 5.72589 82.0467 5.72589C83.2487 5.72589 84.1593 6.24203 84.7783 7.27432C85.7379 6.23665 86.7207 5.72051 87.7267 5.72589C88.7378 5.72589 89.5349 6.0431 90.1178 6.67753C90.7059 7.30658 91 8.28241 91 9.60503V14.2342C91 14.3794 90.9562 14.4976 90.8684 14.589C90.7807 14.6804 90.6672 14.7261 90.528 14.7261H88.8023C88.663 14.7261 88.5469 14.6804 88.4541 14.589C88.3664 14.4923 88.3225 14.374 88.3225 14.2342V9.60503C88.3225 8.31467 87.8737 7.67218 86.976 7.67756C86.4292 7.67756 85.8643 8.08886 85.2813 8.91146C85.3123 9.14265 85.3278 9.37384 85.3278 9.60503V14.2342C85.3278 14.3794 85.2813 14.4976 85.1885 14.589C85.1008 14.6804 84.9898 14.7261 84.8557 14.7261H83.1301C82.9908 14.7261 82.8747 14.6804 82.7818 14.589C82.6941 14.4923 82.6503 14.374 82.6503 14.2342V9.60503C82.6503 8.31467 82.2014 7.67218 81.3038 7.67756C80.7311 7.67756 80.1817 8.06198 79.6555 8.83082V14.2342C79.6555 14.3794 79.6091 14.4976 79.5162 14.589C79.4285 14.6804 79.3176 14.7261 79.1835 14.7261H77.4501C77.3108 14.7261 77.1973 14.6804 77.1096 14.589C77.0219 14.4976 76.978 14.3794 76.978 14.2342Z" fill="#505759"/>
<path d="M37.2774 25.3628C36.6298 25.3628 36.0876 25.1255 35.6507 24.6508C35.2169 24.1761 35 23.4964 35 22.6116C35 21.7236 35.2246 21.0439 35.6739 20.5725C36.1263 20.0978 36.7336 19.8604 37.4958 19.8604C37.8893 19.8604 38.337 19.9428 38.839 20.1075V18.6205C38.839 18.5333 38.8653 18.4622 38.918 18.4073C38.9737 18.3492 39.0419 18.3202 39.1225 18.3202H40.1589C40.2426 18.3202 40.3107 18.3492 40.3634 18.4073C40.4192 18.4622 40.447 18.5333 40.447 18.6205V24.9705C40.447 25.0545 40.4192 25.1255 40.3634 25.1836C40.3107 25.2385 40.2426 25.266 40.1589 25.266H39.2665C39.1829 25.266 39.1147 25.2385 39.062 25.1836C39.0094 25.1255 38.983 25.0545 38.983 24.9705V24.8204C38.4935 25.182 37.9249 25.3628 37.2774 25.3628ZM37.8304 21.0326C37.4028 21.0326 37.1007 21.1585 36.9241 21.4104C36.7475 21.6591 36.6592 22.0595 36.6592 22.6116C36.6592 23.1638 36.7429 23.5658 36.9102 23.8177C37.0775 24.0696 37.3285 24.1955 37.6631 24.1955C38.0008 24.1955 38.3928 24.0502 38.839 23.7596V21.2264C38.4393 21.0972 38.1031 21.0326 37.8304 21.0326Z" fill="#505759"/>
<path d="M42.334 18.945V18.7803C42.334 18.6092 42.3805 18.4735 42.4734 18.3734C42.5695 18.2733 42.7012 18.2233 42.8685 18.2233H43.4448C43.609 18.2233 43.7391 18.2733 43.8352 18.3734C43.9312 18.4703 43.9793 18.6059 43.9793 18.7803V18.945C43.9793 19.1161 43.9312 19.2518 43.8352 19.3519C43.7422 19.452 43.6121 19.502 43.4448 19.502H42.8685C42.7043 19.502 42.5741 19.452 42.4781 19.3519C42.382 19.2518 42.334 19.1161 42.334 18.945ZM42.3526 24.9705V20.3739C42.3526 20.2867 42.3789 20.2156 42.4316 20.1608C42.4874 20.1059 42.5555 20.0784 42.6361 20.0784H43.6772C43.7608 20.0784 43.829 20.1075 43.8817 20.1656C43.9343 20.2205 43.9607 20.2899 43.9607 20.3739V24.9705C43.9607 25.0577 43.9328 25.1287 43.877 25.1836C43.8243 25.2385 43.7577 25.266 43.6772 25.266H42.6361C42.5524 25.266 42.4843 25.2385 42.4316 25.1836C42.3789 25.1287 42.3526 25.0577 42.3526 24.9705Z" fill="#505759"/>
<path d="M47.9298 24.8591C47.2264 24.8591 46.6579 24.6379 46.2241 24.1955C45.7934 23.7531 45.5781 23.1396 45.5781 22.3549C45.5781 21.5703 45.8244 20.9583 46.317 20.5192C46.8097 20.08 47.5161 19.8604 48.4364 19.8604C48.8856 19.8604 49.352 19.9137 49.8353 20.0203C50.3187 20.1236 50.6827 20.2512 50.9275 20.4029V24.8882C50.9275 25.6083 50.6998 26.1394 50.2443 26.4817C49.7888 26.8272 49.149 27 48.3248 27C47.5037 27 46.8701 26.8918 46.4239 26.6755C45.9809 26.4624 45.7593 26.1088 45.7593 25.6147C45.7593 25.5275 45.7857 25.4549 45.8383 25.3967C45.8941 25.3419 45.9638 25.3144 46.0475 25.3144H46.74C46.9631 25.3144 47.1412 25.4 47.2745 25.5711C47.4449 25.7907 47.747 25.9005 48.1807 25.9005C48.6176 25.9005 48.9166 25.8262 49.0777 25.6777C49.2389 25.5291 49.3194 25.266 49.3194 24.8882V24.6605C48.8237 24.7929 48.3605 24.8591 47.9298 24.8591ZM48.3388 21.0326C47.6044 21.0294 47.2373 21.4718 47.2373 22.3598C47.2373 23.2445 47.5951 23.6869 48.3109 23.6869C48.6083 23.6869 48.9445 23.6385 49.3194 23.5416V21.1392C49.053 21.0649 48.7261 21.0294 48.3388 21.0326Z" fill="#505759"/>
<path d="M52.8191 18.945V18.7803C52.8191 18.6092 52.8656 18.4735 52.9585 18.3734C53.0546 18.2733 53.1863 18.2233 53.3536 18.2233H53.9299C54.0941 18.2233 54.2242 18.2733 54.3203 18.3734C54.4163 18.4703 54.4644 18.6059 54.4644 18.7803V18.945C54.4644 19.1161 54.4163 19.2518 54.3203 19.3519C54.2273 19.452 54.0972 19.502 53.9299 19.502H53.3536C53.1894 19.502 53.0592 19.452 52.9632 19.3519C52.8671 19.2518 52.8191 19.1161 52.8191 18.945ZM52.8377 24.9705V20.3739C52.8377 20.2867 52.864 20.2156 52.9167 20.1608C52.9725 20.1059 53.0406 20.0784 53.1212 20.0784H54.1623C54.2459 20.0784 54.3141 20.1075 54.3668 20.1656C54.4194 20.2205 54.4458 20.2899 54.4458 20.3739V24.9705C54.4458 25.0577 54.4179 25.1287 54.3621 25.1836C54.3094 25.2385 54.2428 25.266 54.1623 25.266H53.1212C53.0375 25.266 52.9694 25.2385 52.9167 25.1836C52.864 25.1287 52.8377 25.0577 52.8377 24.9705Z" fill="#505759"/>
<path d="M58.7774 24.2149L59.4141 24.1568H59.5861C59.6697 24.1568 59.7379 24.1842 59.7906 24.2391C59.8464 24.294 59.8742 24.365 59.8742 24.4522V24.9705C59.8742 25.0415 59.8464 25.1061 59.7906 25.1643C59.7379 25.2191 59.6697 25.2531 59.5861 25.266C59.27 25.3306 58.858 25.3628 58.3498 25.3628C57.0175 25.3628 56.3513 24.6363 56.3513 23.1832V18.6205C56.3513 18.5333 56.3777 18.4622 56.4303 18.4073C56.4861 18.3492 56.5543 18.3202 56.6348 18.3202H57.6759C57.7565 18.3202 57.8231 18.3492 57.8757 18.4073C57.9315 18.4622 57.9594 18.5333 57.9594 18.6205V20.2382H59.2561C59.3367 20.2382 59.4033 20.2657 59.456 20.3206C59.5117 20.3755 59.5396 20.4465 59.5396 20.5337V21.1101C59.5396 21.1973 59.5117 21.2683 59.456 21.3232C59.4033 21.3781 59.3367 21.4056 59.2561 21.4056H57.9594V23.1832C57.9594 23.5126 58.0338 23.7677 58.1825 23.9485C58.3312 24.1261 58.5295 24.2149 58.7774 24.2149Z" fill="#505759"/>
<path d="M61.6589 24.9172C61.2499 24.6201 61.0454 24.2004 61.0454 23.6579C61.0454 23.1154 61.2499 22.6988 61.6589 22.4082C62.071 22.1176 62.6009 21.9723 63.2484 21.9723H64.7868C64.7868 21.5945 64.7109 21.3313 64.5591 21.1828C64.4073 21.0342 64.1408 20.96 63.7597 20.96C63.3817 20.96 63.1152 21.0584 62.9603 21.2554C62.8085 21.4492 62.621 21.546 62.3979 21.546H61.7054C61.6218 21.546 61.552 21.5186 61.4963 21.4637C61.4436 21.4056 61.4173 21.3345 61.4173 21.2506C61.4173 20.3238 62.2616 19.8604 63.9502 19.8604C64.6877 19.8604 65.2795 20.0332 65.7256 20.3787C66.1718 20.721 66.3949 21.2522 66.3949 21.9723V24.9705C66.3949 25.0577 66.3686 25.1287 66.3159 25.1836C66.2632 25.2385 66.195 25.266 66.1114 25.266H65.2144C65.1307 25.266 65.0626 25.2385 65.0099 25.1836C64.9572 25.1255 64.9309 25.0545 64.9309 24.9705V24.8204C64.4413 25.1852 63.8759 25.3661 63.2345 25.3628C62.5962 25.3628 62.071 25.2143 61.6589 24.9172ZM63.36 23.0718C63.1431 23.0718 62.9711 23.1267 62.8441 23.2365C62.7202 23.3463 62.6582 23.4883 62.6582 23.6627C62.6582 23.8371 62.7233 23.9808 62.8534 24.0938C62.9835 24.2068 63.1679 24.2633 63.4065 24.2633C63.8836 24.2633 64.3437 24.118 64.7868 23.8274V23.0718H63.36Z" fill="#505759"/>
<path d="M68.2865 24.9705V18.6205C68.2865 18.5333 68.3128 18.4622 68.3655 18.4073C68.4213 18.3492 68.4894 18.3202 68.57 18.3202H69.6111C69.6916 18.3202 69.7582 18.3492 69.8109 18.4073C69.8667 18.4622 69.8946 18.5333 69.8946 18.6205V24.9705C69.8946 25.0545 69.8667 25.1255 69.8109 25.1836C69.7582 25.2385 69.6916 25.266 69.6111 25.266H68.57C68.4894 25.266 68.4213 25.2385 68.3655 25.1836C68.3128 25.1255 68.2865 25.0545 68.2865 24.9705Z" fill="#505759"/>
</svg>
