<svg width="36" height="36" viewBox="0 0 36 36" fill="none" xmlns="http://www.w3.org/2000/svg">
<path d="M30.372 10.3877C30.3799 10.2401 30.4169 10.0956 30.4807 9.96234C30.5446 9.82909 30.634 9.70971 30.744 9.61102C30.854 9.51234 30.9823 9.43628 31.1216 9.38719C31.261 9.3381 31.4087 9.31694 31.5562 9.32491C31.7038 9.33289 31.8483 9.36985 31.9815 9.43368C32.1148 9.49751 32.2342 9.58697 32.3329 9.69694C32.4315 9.8069 32.5076 9.93523 32.5567 10.0746C32.6058 10.214 32.6269 10.3616 32.619 10.5092L30.372 10.3877ZM28.923 4.63816C29.12 4.85587 29.224 5.14197 29.213 5.43538C29.2019 5.72878 29.0766 6.00623 28.8638 6.20849C28.6509 6.41075 28.3675 6.52179 28.0739 6.5179C27.7803 6.51401 27.4999 6.39549 27.2925 6.18766L28.923 4.63816ZM20.004 29.7182C19.8789 29.7988 19.739 29.8538 19.5925 29.88C19.446 29.9062 19.2958 29.903 19.1505 29.8707C19.0052 29.8385 18.8678 29.7777 18.7462 29.6919C18.6246 29.6061 18.5212 29.4971 18.442 29.3711C18.3628 29.2451 18.3094 29.1046 18.2849 28.9578C18.2604 28.811 18.2653 28.6608 18.2992 28.5159C18.3331 28.371 18.3955 28.2343 18.4827 28.1137C18.5698 27.993 18.6801 27.8909 18.807 27.8132L20.004 29.7182ZM13.3305 30.0872C13.6227 30.0261 13.9272 30.0836 14.177 30.247C14.4268 30.4105 14.6014 30.6665 14.6625 30.9587C14.7235 31.2509 14.666 31.5554 14.5026 31.8052C14.3391 32.055 14.0832 32.2296 13.791 32.2907L13.3305 30.0872ZM12.5325 23.3162L11.85 22.5962L13.482 21.0467L14.1645 21.7667L12.5325 23.3162ZM9.60146 22.2932L6.73646 23.9432L5.61297 21.9932L8.47946 20.3432L9.60146 22.2932ZM6.18296 27.3632L8.31446 29.6057L6.68247 31.1567L4.55247 28.9127L6.18296 27.3632ZM23.4615 23.9387C29.2755 17.8172 30.2505 12.6527 30.372 10.3877L32.619 10.5092C32.469 13.2842 31.293 18.9602 25.092 25.4882L23.4615 23.9387ZM21.3975 13.9832L20.9685 13.5302L22.599 11.9807L23.0295 12.4337L21.3975 13.9832ZM20.6295 7.89016L22.521 5.21566L24.3585 6.51466L22.4685 9.18916L20.6295 7.89016ZM22.215 13.2077C22.4849 12.9475 22.7574 12.69 23.0325 12.4352L23.0355 12.4382L23.04 12.4427C23.0666 12.4702 23.0916 12.4993 23.115 12.5297C23.262 12.7243 23.3784 12.9403 23.46 13.1702C23.607 13.5827 23.685 14.1287 23.586 14.8097C23.391 16.1477 22.5135 17.9462 20.223 20.3597L18.591 18.8087C20.733 16.5542 21.261 15.1667 21.36 14.4827C21.408 14.1527 21.36 13.9802 21.3405 13.9247L21.3285 13.8962C21.3407 13.9159 21.3548 13.9345 21.3705 13.9517C21.3793 13.9619 21.3883 13.9734 21.3975 13.9832L22.215 13.2077ZM20.223 20.3582C17.9385 22.7642 16.2135 23.7092 14.898 23.9237C14.2215 24.0332 13.674 23.9447 13.26 23.7812C13.0301 23.6913 12.8163 23.5646 12.627 23.4062L12.5745 23.3552L12.5535 23.3342C12.5499 23.3312 12.5464 23.3282 12.543 23.3252L12.5385 23.3207L12.537 23.3177C12.537 23.3177 12.534 23.3162 13.35 22.5407C14.166 21.7667 14.1645 21.7652 14.1645 21.7637L14.1615 21.7622L14.1585 21.7577L14.1495 21.7502C14.1268 21.7283 14.1033 21.7072 14.079 21.6872C14.0655 21.6782 14.067 21.6812 14.0865 21.6887C14.1165 21.7007 14.2515 21.7487 14.5365 21.7022C15.1395 21.6032 16.4415 21.0722 18.591 18.8087L20.223 20.3582ZM22.521 5.21566C24.042 3.06466 27.084 2.70016 28.923 4.63816L27.2925 6.18766C26.508 5.36266 25.1265 5.42716 24.3585 6.51466L22.521 5.21566ZM8.31446 29.6057C8.73296 30.0467 9.16947 30.2837 9.59547 30.3257L9.37497 32.5637C8.25447 32.4542 7.34696 31.8572 6.68247 31.1567L8.31446 29.6057ZM20.9685 13.5302C19.5165 12.0017 19.4145 9.61067 20.6295 7.89016L22.467 9.18916C21.834 10.0847 21.9315 11.2787 22.599 11.9807L20.9685 13.5302ZM6.73646 23.9432C5.50496 24.6527 5.26346 26.3957 6.18296 27.3632L4.55247 28.9127C2.59497 26.8517 3.16496 23.4032 5.61297 21.9932L6.73646 23.9432ZM11.85 22.5962C11.2725 21.9872 10.371 21.8507 9.60146 22.2932L8.47946 20.3432C10.128 19.3952 12.1695 19.6667 13.482 21.0467L11.85 22.5962ZM18.807 27.8132C20.2815 26.8862 21.852 25.6322 23.4615 23.9387L25.092 25.4882C23.361 27.3107 21.6465 28.6862 20.004 29.7182L18.807 27.8132ZM9.59697 30.3257C10.8464 30.4354 12.1052 30.355 13.3305 30.0872L13.791 32.2907C12.3413 32.6047 10.8523 32.6967 9.37497 32.5637L9.59697 30.3257Z" fill="white"/>
</svg>
