<svg width="24" height="33" viewBox="0 0 24 33" fill="none" xmlns="http://www.w3.org/2000/svg">
<path d="M8 22H16C18.828 22 20.243 22 21.121 21.122C22 20.242 22 18.829 22 16V15C22 12.172 22 10.758 21.121 9.87901C20.353 9.11101 19.175 9.01401 17 9.00201M7 9.00201C4.825 9.01401 3.647 9.11101 2.879 9.87901C2 10.758 2 12.172 2 15V16C2 18.829 2 20.243 2.879 21.122C3.179 21.422 3.541 21.619 4 21.749" stroke="white" stroke-width="1.5" stroke-linecap="round"/>
<path d="M12 2V15M12 15L9 11.5M12 15L15 11.5" stroke="white" stroke-width="1.5" stroke-linecap="round" stroke-linejoin="round"/>
</svg>
