<svg width="34" height="32" viewBox="0 0 34 32" fill="none" xmlns="http://www.w3.org/2000/svg">
<path d="M5.51759 11.458C2.72274 13.6071 1 15.7718 1 16C1 16.4658 8.17753 25 17 25C25.8225 25 33 16.4658 33 16C33 15.5343 25.8225 7 17 7C13.8086 7 10.8324 8.11674 8.33333 9.56437" stroke="#456CEE" stroke-width="1.5" stroke-miterlimit="10" stroke-linecap="round" stroke-linejoin="round"/>
<path d="M19 16C19 17.1046 18.1045 18 17 18C15.8955 18 15 17.1046 15 16C15 14.8954 15.8955 14 17 14C18.1045 14 19 14.8954 19 16Z" fill="#456CEE"/>
<path d="M22 16C22 18.7615 19.7613 21 17.0001 21C14.2387 21 12 18.7615 12 16C12 13.2385 14.2387 11 17.0001 11C19.7613 11 22 13.2385 22 16Z" stroke="#456CEE" stroke-width="1.5" stroke-miterlimit="10" stroke-linecap="round" stroke-linejoin="round"/>
</svg>
