<svg width="48" height="48" viewBox="0 0 48 48" fill="none" xmlns="http://www.w3.org/2000/svg">
<g clip-path="url(#clip0_1_1947)">
<path d="M19.5002 46.5002C19.5002 46.5002 18.5002 42.0002 18.5002 41.0002C18.5002 40.0002 19.5002 39.8002 19.5002 39.0002C19.5002 38.2002 19.1668 37.6669 19.0002 37.5002M18.0002 35.0002C17.5002 34.3336 16.6002 32.5002 17.0002 30.5002C17.5002 28.0002 19.0003 27.0002 19.0002 25.5002C19.0002 24.0002 18.5002 23.0002 16.0002 20.0002C14.0002 17.6002 13.5002 14.0002 13.5002 12.0002C13.5002 10.8662 13.5002 9.50024 14.0002 8.00025C14.4352 6.6955 9.50032 5.00024 7.0002 4.50024C5.18377 4.13698 2.40021 7.00025 6.00021 9.00025C7.50016 7.00024 10.0002 7.00024 10.5002 10.0002M10.5001 12.5001C10.5001 15.5001 6.39129 16.4686 5.89129 11.9686C1.39124 11.9686 -2.10868 1.16862 7.89132 1.96862C10.0943 2.81255 14.7001 4.50039 15.5001 4.50024C16.3001 4.5001 19.0001 2.50006 20.5001 1.96862" stroke="#456CEE" stroke-width="1.5" stroke-linecap="round" stroke-linejoin="round"/>
<path d="M28.0003 47.0315C28.0003 47.0315 29.0003 42.5315 29.0003 41.5315C29.0003 40.5315 28.0003 40.3315 28.0003 39.5315C28.0003 38.7315 28.0004 38.563 28.5003 38.0315C29.0003 37.5001 29.5003 36.5315 30.0003 35.5001C30.5002 34.4687 30.9003 33.0315 30.5003 31.0315C30.0003 28.5315 28.5002 27.5315 28.5003 26.0315C28.5003 24.8391 28.8163 23.9626 30.2019 22.1461M32.5004 19.5001C33.466 17.3937 34.0003 14.0197 34.0003 12.5315C34.0003 11.3975 34.0003 10.0315 33.5003 8.53154C33.0653 7.22679 38.0002 5.53153 40.5003 5.03153C42.3167 4.66827 45.1003 7.53154 41.5003 9.53154C40.0003 7.53153 38.0003 8.5001 37.5003 9.53154C37.0004 10.563 36.7504 12.5001 37.5003 14.0001C38.2503 15.5001 41.5003 16.5001 42.0003 12.0001C46.5004 12.0001 50.0003 1.2001 40.0003 2.0001C37.5003 2.2001 34.1464 4.5001 32.5004 4.5001C31.9402 4.5001 30.1417 2.66753 28.5004 2.00012C26.7167 1.27481 25.1092 1.50013 24.0004 1.50012" stroke="#456CEE" stroke-width="1.5" stroke-linecap="round" stroke-linejoin="round"/>
<path d="M22.5 46.5L22 40C21.5 37.6667 20.8 32.2 22 29C23.2 25.8 18.8333 13.3333 16.5 7.50001C18.6667 5.16668 24.7 1.90001 31.5 7.50001C29.5 12 25.6 22.3 26 27.5C26.5 34 25.5 39.6991 25.5 40C25.5 40.2407 25.5 44.4336 25.5 46.5" stroke="#456CEE" stroke-width="1.5" stroke-linecap="round" stroke-linejoin="round"/>
</g>
<defs>
<clipPath id="clip0_1_1947">
<rect width="48" height="48" fill="white"/>
</clipPath>
</defs>
</svg>
