<svg width="192" height="64" viewBox="0 0 192 64" fill="none" xmlns="http://www.w3.org/2000/svg">
<circle cx="31.7874" cy="31.787" r="28.7992" fill="white"/>
<mask id="path-2-outside-1_176_3504" maskUnits="userSpaceOnUse" x="0" y="0" width="64" height="64" fill="black">
<rect fill="white" width="64" height="64"/>
<path fill-rule="evenodd" clip-rule="evenodd" d="M4.97574 31.787C4.97574 16.9796 16.9796 4.97574 31.787 4.97574C46.5945 4.97574 58.5983 16.9796 58.5983 31.787C58.5983 46.5945 46.5945 58.5983 31.787 58.5983C16.9796 58.5983 4.97574 46.5945 4.97574 31.787ZM31.787 1C14.7838 1 1 14.7838 1 31.787C1 48.7902 14.7838 62.5741 31.787 62.5741C48.7902 62.5741 62.5741 48.7902 62.5741 31.787C62.5741 14.7838 48.7902 1 31.787 1Z"/>
</mask>
<path d="M31.787 3.98181C16.4306 3.98181 3.98181 16.4306 3.98181 31.787H5.96968C5.96968 17.5285 17.5285 5.96968 31.787 5.96968V3.98181ZM59.5923 31.787C59.5923 16.4306 47.1434 3.98181 31.787 3.98181V5.96968C46.0456 5.96968 57.6044 17.5285 57.6044 31.787H59.5923ZM31.787 59.5923C47.1434 59.5923 59.5923 47.1434 59.5923 31.787H57.6044C57.6044 46.0456 46.0456 57.6044 31.787 57.6044V59.5923ZM3.98181 31.787C3.98181 47.1434 16.4306 59.5923 31.787 59.5923V57.6044C17.5285 57.6044 5.96968 46.0456 5.96968 31.787H3.98181ZM1.99394 31.787C1.99394 15.3328 15.3328 1.99394 31.787 1.99394V0.00606418C14.2349 0.00606418 0.00606418 14.2349 0.00606418 31.787H1.99394ZM31.787 61.5801C15.3328 61.5801 1.99394 48.2413 1.99394 31.787H0.00606418C0.00606418 49.3392 14.2349 63.568 31.787 63.568V61.5801ZM61.5801 31.787C61.5801 48.2413 48.2413 61.5801 31.787 61.5801V63.568C49.3392 63.568 63.568 49.3392 63.568 31.787H61.5801ZM31.787 1.99394C48.2413 1.99394 61.5801 15.3328 61.5801 31.787H63.568C63.568 14.2349 49.3392 0.00606418 31.787 0.00606418V1.99394Z" fill="white" mask="url(#path-2-outside-1_176_3504)"/>
<g clip-path="url(#clip0_176_3504)">
<circle opacity="0.3" cx="30.5162" cy="29.3072" r="22.1559" fill="#43D6DF"/>
<path opacity="0.994" fill-rule="evenodd" clip-rule="evenodd" d="M9.58789 43.6139C18.6984 43.6096 27.8088 43.6139 36.9193 43.6269C37.5566 44.0962 37.8772 44.7284 37.8806 45.5235C37.8808 46.7998 37.634 48.0252 37.1401 49.1997C36.2695 51.1006 34.8147 52.287 32.7754 52.759C32.7624 55.513 32.7581 58.2669 32.7624 61.0208C32.0955 61.0803 31.4287 61.0629 30.7619 60.9689C30.7619 58.3534 30.7619 55.7382 30.7619 53.1228C27.14 53.017 23.8925 51.8781 21.0193 49.7063C20.2092 49.0891 19.4038 48.4656 18.6031 47.8358C17.0587 46.7027 15.344 45.9406 13.459 45.5495C12.9155 45.4631 12.3699 45.3938 11.8222 45.3416C11.0531 45.1845 10.3906 44.8337 9.8347 44.2894C9.73091 44.1423 9.64864 43.9865 9.58789 43.8218C9.58789 43.7525 9.58789 43.6832 9.58789 43.6139Z" fill="#4C74F8"/>
<path opacity="0.984" fill-rule="evenodd" clip-rule="evenodd" d="M53.9364 43.6136C53.9364 43.6829 53.9364 43.7522 53.9364 43.8215C53.8405 44.1034 53.6758 44.3416 53.4428 44.5361C52.9266 44.9371 52.3464 45.2056 51.7021 45.3416C49.593 45.4726 47.6445 46.0962 45.8565 47.2126C44.8412 47.8901 43.8628 48.6177 42.9207 49.3954C42.6653 49.5816 42.4097 49.7678 42.1543 49.9541C42.4603 49.2087 42.6942 48.4377 42.8558 47.6414C43.1132 46.2977 43.0743 44.9637 42.7389 43.6396C46.4715 43.6136 50.2038 43.6049 53.9364 43.6136Z" fill="#4C74F8"/>
<path opacity="0.988" fill-rule="evenodd" clip-rule="evenodd" d="M28.1115 25.9214C28.4926 25.9214 28.8736 25.9214 29.2547 25.9214C31.3838 26.135 32.8863 27.2175 33.7623 29.1689C33.9421 29.6133 34.1067 30.0636 34.2559 30.5199C34.3221 30.6655 34.4217 30.7824 34.5547 30.8707C34.8204 30.9579 35.0499 31.1008 35.2431 31.2993C35.6482 31.9025 35.7347 32.552 35.5029 33.2479C35.3485 33.7544 35.21 34.2653 35.0873 34.7807C34.9834 35.1788 34.8362 35.5599 34.6456 35.9238C34.3064 36.4731 33.869 36.5727 33.3336 36.2226C33.1302 36.0288 32.9354 35.8253 32.749 35.6121C32.3752 35.1083 32.0115 34.5974 31.6578 34.0792C31.3178 33.5097 31.1706 32.8948 31.2162 32.2346C31.2253 32.0348 31.2859 31.8529 31.398 31.689C31.6771 31.4099 31.9715 31.1501 32.2814 30.9096C32.3254 30.8561 32.3558 30.7955 32.3723 30.7278C32.0457 29.2537 31.1537 28.3141 29.6963 27.9089C27.3355 27.3593 25.7291 28.2123 24.877 30.468C24.2233 32.924 24.9118 34.9028 26.9424 36.4045C27.8195 36.9946 28.7634 37.4535 29.7743 37.7814C30.8046 38.1105 31.8524 38.3703 32.9179 38.5609C34.1898 38.7442 35.4455 39.004 36.6851 39.3403C37.864 39.6614 38.9552 40.1637 39.9586 40.8471C41.6203 42.0793 42.4343 43.7377 42.4007 45.8224C42.3384 48.3791 41.4506 50.5961 39.7378 52.4734C38.0184 54.3227 35.901 55.4224 33.3855 55.7729C33.3769 54.9153 33.3855 54.0579 33.4115 53.2008C36.4601 52.1304 38.1358 49.9828 38.4387 46.7577C38.479 46.2733 38.4964 45.7883 38.4907 45.3028C38.4468 44.5005 38.122 43.838 37.5164 43.3153C37.0392 42.9378 36.5196 42.626 35.9576 42.38C35.3527 42.1292 34.7378 41.9041 34.113 41.7045C32.4571 41.2083 30.8117 40.68 29.1767 40.1197C27.6006 39.5481 26.1111 38.812 24.7081 37.9113C22.9386 36.6804 22.0899 34.9787 22.162 32.8062C22.067 31.0254 22.6083 29.4752 23.7858 28.1557C24.9526 26.8811 26.3946 26.1363 28.1115 25.9214Z" fill="#1D45CC"/>
<path opacity="0.987" fill-rule="evenodd" clip-rule="evenodd" d="M30.1121 53.3311C30.138 54.2879 30.1467 55.2492 30.1381 56.2149C29.1041 56.4134 28.4502 57.0195 28.1766 58.0335C27.7051 59.7365 28.307 60.8578 29.9822 61.398C31.3215 61.7843 32.6638 61.7929 34.0092 61.424C34.5274 61.2883 34.9821 61.0415 35.3732 60.6835C35.7998 60.1922 35.9037 59.6381 35.6849 59.0208C35.552 58.7789 35.3485 58.636 35.0744 58.5921C34.5076 58.5201 33.9533 58.5762 33.4116 58.761C33.3813 58.1548 33.377 57.5487 33.3986 56.9423C34.336 56.6404 35.2972 56.4672 36.2825 56.4227C36.9619 56.4329 37.6158 56.5669 38.244 56.8254C39.02 57.1691 39.4661 57.7623 39.582 58.6051C39.6869 59.3097 39.557 59.9678 39.1923 60.5796C38.8028 61.2117 38.3048 61.7443 37.6984 62.1774C35.4223 63.7204 32.9282 64.24 30.216 63.7362C29.1746 63.4988 28.196 63.109 27.2803 62.5671C25.7449 61.584 25.0001 60.1722 25.0459 58.3323C25.0883 57.4084 25.3784 56.5729 25.9163 55.8252C26.9537 54.3905 28.3523 53.5592 30.1121 53.3311Z" fill="#1D45CC"/>
<path opacity="0.954" fill-rule="evenodd" clip-rule="evenodd" d="M30.1124 58.1885C30.1426 58.7903 30.147 59.3968 30.1254 60.0075C29.8946 60.1473 29.6824 60.3118 29.4888 60.5012C29.0051 60.2341 28.7279 59.8271 28.6572 59.2799C29.0966 58.8527 29.5816 58.4889 30.1124 58.1885Z" fill="#1D45CC"/>
<path fill-rule="evenodd" clip-rule="evenodd" d="M40.7751 38.2813C39.7394 37.0786 39.0367 33.9699 44.5122 31.1565C45.2461 36.7695 42.8048 38.2265 41.1801 38.2937C41.144 38.2952 41.2154 38.2936 41.1801 38.2937C41.3705 36.9779 41.8578 33.9137 43.9035 32.2327C41.8578 33.9137 40.9655 36.9655 40.7751 38.2813Z" fill="#43D6DF"/>
<path fill-rule="evenodd" clip-rule="evenodd" d="M42.291 39.0321C43.4375 37.521 46.8947 35.9227 51.5515 41.618C45.1755 43.879 42.8624 41.3904 42.3777 39.5085C42.367 39.4667 42.3867 39.5497 42.3777 39.5085C43.963 39.4021 47.6657 39.2054 50.1416 41.1758C47.6657 39.2054 43.8763 38.9257 42.291 39.0321Z" fill="#1D45CC"/>
<path fill-rule="evenodd" clip-rule="evenodd" d="M48.911 36.7216C49.6254 35.6488 51.9033 34.4201 55.2999 38.088C51.0702 39.8882 49.3972 38.2971 48.9898 37.0411C48.9807 37.0131 48.9976 37.0686 48.9898 37.0411C50.0605 36.9026 52.5636 36.6143 54.3252 37.8471C52.5636 36.6143 49.9817 36.5831 48.911 36.7216Z" fill="#43D6DF"/>
<path fill-rule="evenodd" clip-rule="evenodd" d="M52.8284 33.5906C54.4664 33.2541 57.0532 31.1134 54.2969 25.2427C50.0722 29.4521 51.1707 32.2387 52.4826 33.3404C52.5118 33.3649 52.4533 33.3175 52.4826 33.3404C53.1706 32.1203 54.7364 29.2508 54.1119 26.5321C54.7364 29.2508 53.5164 32.3706 52.8284 33.5906Z" fill="#4C74F8"/>
<path fill-rule="evenodd" clip-rule="evenodd" d="M47.5181 34.8701C46.4394 34.0445 45.3051 31.564 49.3976 28.2462C50.9976 32.8189 49.2086 34.4679 47.8595 34.8094C47.8295 34.817 47.889 34.8031 47.8595 34.8094C47.788 33.6738 47.6583 31.0216 49.0767 29.2545C47.6583 31.0216 47.4466 33.7345 47.5181 34.8701Z" fill="#1D45CC"/>
<path fill-rule="evenodd" clip-rule="evenodd" d="M20.7166 38.3875C21.8459 37.2723 22.797 34.2304 17.5662 30.9847C16.3821 36.5202 18.6979 38.1693 20.3119 38.3673C20.3478 38.3717 20.2767 38.3643 20.3119 38.3673C20.2282 37.0404 19.9896 33.9469 18.0861 32.1065C19.9896 33.9469 20.6329 37.0607 20.7166 38.3875Z" fill="#1D45CC"/>
<path fill-rule="evenodd" clip-rule="evenodd" d="M19.9732 39.5974C18.9523 37.9988 15.6353 36.1269 10.5344 41.4281C16.7073 44.1959 19.2135 41.9019 19.8484 40.0652C19.8625 40.0244 19.8361 40.1056 19.8484 40.0652C18.2769 39.8313 14.602 39.3367 11.9754 41.1011C14.602 39.3367 18.4017 39.3635 19.9732 39.5974Z" fill="#4C74F8"/>
<path fill-rule="evenodd" clip-rule="evenodd" d="M13.6572 37.0608C13.0317 35.9338 10.8602 34.5255 7.17891 37.9076C11.2498 40.043 13.0456 38.592 13.553 37.3729C13.5642 37.3457 13.5429 37.3997 13.553 37.3729C12.4969 37.1485 10.0252 36.6593 8.16989 37.746C10.0252 36.6593 12.6011 36.8364 13.6572 37.0608Z" fill="#43D6DF"/>
<path fill-rule="evenodd" clip-rule="evenodd" d="M10.1345 34.6971C8.48828 34.4034 5.8464 32.331 8.44846 26.3903C12.7817 30.488 11.7563 33.3023 10.4736 34.4378C10.4451 34.4631 10.5024 34.4142 10.4736 34.4378C9.75398 33.2362 8.11385 30.4085 8.66707 27.6745C8.11385 30.4085 9.41483 33.4954 10.1345 34.6971Z" fill="#1D45CC"/>
<path fill-rule="evenodd" clip-rule="evenodd" d="M14.4599 34.5225C15.2892 33.786 16.0651 31.6985 12.535 29.2405C11.5043 33.0594 13.0594 34.2957 14.1783 34.4934C14.2032 34.4978 14.1539 34.49 14.1783 34.4934C14.1689 33.5644 14.1166 31.397 12.8563 30.0425C14.1166 31.397 14.4505 33.5935 14.4599 34.5225Z" fill="#43D6DF"/>
<path fill-rule="evenodd" clip-rule="evenodd" d="M31.0804 23.3997C32.6651 23.4881 35.5581 22.151 34.4525 16.0951C29.5547 18.9334 29.887 21.757 30.8237 23.0862C30.8446 23.1157 30.8023 23.0581 30.8237 23.0862C31.751 22.1334 33.8837 19.8798 33.97 17.2335C33.8837 19.8798 32.0076 22.4469 31.0804 23.3997Z" fill="#43D6DF"/>
<path fill-rule="evenodd" clip-rule="evenodd" d="M29.5609 22.6561C30.0604 20.8262 29.2212 17.1111 21.8677 16.8891C23.9601 23.3223 27.3429 23.64 29.1303 22.8776C29.1701 22.8606 29.0922 22.8956 29.1303 22.8776C28.2487 21.5558 26.1484 18.5 23.0775 17.7376C26.1484 18.5 28.6793 21.3342 29.5609 22.6561Z" fill="#4C74F8"/>
<path fill-rule="evenodd" clip-rule="evenodd" d="M26.9999 15.9158C27.0638 14.6285 25.9635 12.2858 21.0513 13.2141C23.3807 17.1771 25.672 16.8931 26.7466 16.1258C26.7705 16.1087 26.7239 16.1433 26.7466 16.1258C25.9683 15.3776 24.1276 13.657 21.9782 13.6002C24.1276 13.657 26.2216 15.1676 26.9999 15.9158Z" fill="#43D6DF"/>
<path fill-rule="evenodd" clip-rule="evenodd" d="M24.6472 10.1293C24.1004 11.2965 22.0305 12.8503 18.1261 9.72831C22.0411 7.31902 23.9321 8.64361 24.5219 9.82511C24.535 9.85139 24.51 9.79901 24.5219 9.82511C23.4836 10.1213 21.0513 10.7787 19.1259 9.82159C21.0513 10.7787 23.609 10.4255 24.6472 10.1293Z" fill="#43D6DF"/>
<path fill-rule="evenodd" clip-rule="evenodd" d="M28.5357 14.1078C29.9668 13.2428 31.6887 10.3602 27.1276 5.74949C24.554 11.1295 26.5212 13.3882 28.1261 13.9876C28.1618 14.0009 28.0908 13.9759 28.1261 13.9876C28.3664 12.6077 28.8822 9.37979 27.3845 7.02651C28.8822 9.37979 28.776 12.7279 28.5357 14.1078Z" fill="#4C74F8"/>
<path fill-rule="evenodd" clip-rule="evenodd" d="M30.1271 17.0925C31.2297 17.2127 33.2977 16.3865 32.7498 12.12C29.2274 13.9197 29.355 15.9022 29.9596 16.8642C29.9731 16.8856 29.9457 16.8438 29.9596 16.8642C30.6418 16.2336 32.2132 14.7399 32.3711 12.8965C32.2132 14.7399 30.8093 16.4619 30.1271 17.0925Z" fill="#1D45CC"/>
<path fill-rule="evenodd" clip-rule="evenodd" d="M39.953 14.8279C40.9297 14.3025 42.166 12.4502 39.2977 9.24451C37.4144 12.7229 38.6425 14.2844 39.6857 14.7347C39.7089 14.7447 39.6627 14.7258 39.6857 14.7347C39.8907 13.8286 40.3395 11.7075 39.4255 10.099C40.3395 11.7075 40.158 13.9219 39.953 14.8279Z" fill="#1D45CC"/>
<path fill-rule="evenodd" clip-rule="evenodd" d="M37.1877 28.9188C37.8759 30.349 40.4443 32.2361 45.2124 28.3424C40.3611 25.4253 38.0494 27.0803 37.3382 28.5426C37.3224 28.5751 37.3525 28.5103 37.3382 28.5426C38.6204 28.8942 41.6239 29.6728 43.9826 28.4699C41.6239 29.6728 38.4699 29.2704 37.1877 28.9188Z" fill="#4C74F8"/>
<path fill-rule="evenodd" clip-rule="evenodd" d="M37.1051 27.2277C38.9486 26.7811 41.7959 24.2514 38.4378 17.7058C33.8159 22.6458 35.172 25.761 36.7031 26.9577C36.7372 26.9843 36.669 26.933 36.7031 26.9577C37.4345 25.5473 39.0954 22.232 38.2793 19.1749C39.0954 22.232 37.8365 25.8172 37.1051 27.2277Z" fill="#1D45CC"/>
<path fill-rule="evenodd" clip-rule="evenodd" d="M41.609 21.4943C42.8488 21.142 44.715 19.3488 42.261 14.9935C39.2539 18.4705 40.2575 20.5497 41.3288 21.3216C41.3527 21.3388 41.305 21.3057 41.3288 21.3216C41.788 20.3445 42.8277 18.0493 42.1924 15.9952C42.8277 18.0493 42.0681 20.5171 41.609 21.4943Z" fill="#4C74F8"/>
<path fill-rule="evenodd" clip-rule="evenodd" d="M47.2334 20.1359C48.7339 19.3978 50.6984 16.6748 46.5529 11.6871C43.524 16.8245 45.2887 19.2448 46.8357 19.9807C46.8701 19.9971 46.8016 19.966 46.8357 19.9807C47.1944 18.6267 47.9872 15.4555 46.6984 12.9816C47.9872 15.4555 47.5921 18.7819 47.2334 20.1359Z" fill="#1D45CC"/>
<path fill-rule="evenodd" clip-rule="evenodd" d="M42.8747 24.2541C43.3021 25.2775 45.0246 26.689 48.4955 24.1481C45.2181 21.9335 43.5439 23.003 42.9937 23.9971C42.9814 24.0192 43.0048 23.9751 42.9937 23.9971C43.8753 24.2898 45.9424 24.944 47.6326 24.1917C45.9424 24.944 43.7564 24.5467 42.8747 24.2541Z" fill="#43D6DF"/>
<path fill-rule="evenodd" clip-rule="evenodd" d="M48.1814 21.8507C48.8838 22.709 50.9382 23.5687 53.5368 20.1407C49.7627 18.9567 48.4646 20.4605 48.2219 21.5705C48.2165 21.5952 48.2262 21.5462 48.2219 21.5705C49.1504 21.5986 51.3182 21.6339 52.7225 20.4294C51.3182 21.6339 49.11 21.8789 48.1814 21.8507Z" fill="#4C74F8"/>
<path fill-rule="evenodd" clip-rule="evenodd" d="M22.7116 27.2898C24.0578 26.4491 25.6522 23.6894 21.2596 19.3765C18.8915 24.5181 20.7897 26.6346 22.3212 27.1814C22.3552 27.1935 22.2875 27.1707 22.3212 27.1814C22.5302 25.8684 22.9751 22.7977 21.5211 20.585C22.9751 22.7977 22.9206 25.9768 22.7116 27.2898Z" fill="#1D45CC"/>
<path fill-rule="evenodd" clip-rule="evenodd" d="M21.0404 27.5557C20.3945 25.7723 17.5681 23.2191 11.4298 27.2741C16.8463 31.327 19.7942 29.6378 20.8161 27.9848C20.8388 27.9481 20.7952 28.0215 20.8161 27.9848C19.334 27.4123 15.8568 26.1246 12.9074 27.2706C15.8568 26.1246 19.5583 26.9832 21.0404 27.5557Z" fill="#4C74F8"/>
<path fill-rule="evenodd" clip-rule="evenodd" d="M15.8352 23.4347C15.4717 22.1981 13.6616 20.3482 9.32874 22.8417C12.8328 25.8171 14.9029 24.7947 15.6651 23.7164C15.682 23.6924 15.6494 23.7404 15.6651 23.7164C14.6838 23.2661 12.3794 22.2473 10.331 22.9011C12.3794 22.2473 14.8539 22.9844 15.8352 23.4347Z" fill="#43D6DF"/>
<path fill-rule="evenodd" clip-rule="evenodd" d="M17.795 22.1679C19.046 21.0584 20.2181 17.9119 14.8984 14.2021C13.3403 19.9588 15.6836 21.8244 17.3704 22.1238C17.4079 22.1304 17.3336 22.1186 17.3704 22.1238C17.3572 20.7231 17.2807 17.4552 15.382 15.4116C17.2807 17.4552 17.7818 20.7673 17.795 22.1679Z" fill="#4C74F8"/>
<path fill-rule="evenodd" clip-rule="evenodd" d="M18.9357 16.3511C19.6047 16.1113 20.5647 15.0555 19.053 12.7507C17.5279 14.7751 18.1571 15.8817 18.7752 16.2665C18.7889 16.2751 18.7615 16.2587 18.7752 16.2665C18.9915 15.7119 19.4782 14.4107 19.0524 13.3043C19.4782 14.4107 19.152 15.7965 18.9357 16.3511Z" fill="#1D45CC"/>
<path fill-rule="evenodd" clip-rule="evenodd" d="M49.2195 25.3355C49.5045 25.9865 50.6236 26.8721 52.8195 25.2062C50.6955 23.8232 49.6346 24.5267 49.2929 25.1696C49.2853 25.1839 49.2998 25.1554 49.2929 25.1696C49.861 25.3475 51.1925 25.744 52.2672 25.2435C51.1925 25.744 49.7876 25.5134 49.2195 25.3355Z" fill="#1D45CC"/>
<path fill-rule="evenodd" clip-rule="evenodd" d="M34.2397 14.7474C34.0047 14.0767 34.2205 12.6661 36.9629 12.3893C36.3505 14.8488 35.0946 15.0567 34.4064 14.8189C34.3911 14.8136 34.4212 14.8246 34.4064 14.8189C34.7011 14.3016 35.4055 13.1042 36.5331 12.7383C35.4055 13.1042 34.5343 14.2302 34.2397 14.7474Z" fill="#43D6DF"/>
<path fill-rule="evenodd" clip-rule="evenodd" d="M35.3344 11.4164C35.8802 10.7892 36.2566 9.16268 33.396 7.67429C32.9965 10.6125 34.2714 11.3823 35.1223 11.4218C35.1412 11.4227 35.1038 11.4216 35.1223 11.4218C35.026 10.7321 34.779 9.12565 33.7119 8.23966C34.779 9.12565 35.2382 10.7266 35.3344 11.4164Z" fill="#43D6DF"/>
</g>
<path fill-rule="evenodd" clip-rule="evenodd" d="M4.97574 31.787C4.97574 16.9796 16.9796 4.97574 31.787 4.97574C46.5945 4.97574 58.5983 16.9796 58.5983 31.787C58.5983 46.5945 46.5945 58.5983 31.787 58.5983C16.9796 58.5983 4.97574 46.5945 4.97574 31.787ZM31.787 1C14.7838 1 1 14.7838 1 31.787C1 48.7902 14.7838 62.5741 31.787 62.5741C48.7902 62.5741 62.5741 48.7902 62.5741 31.787C62.5741 14.7838 48.7902 1 31.787 1Z" fill="#4E75F7"/>
<mask id="path-43-outside-2_176_3504" maskUnits="userSpaceOnUse" x="74.1299" y="15.7725" width="118" height="22" fill="black">
<rect fill="white" x="74.1299" y="15.7725" width="118" height="22"/>
<path d="M90.8569 36.7725H86.7681V29.2988C85.6308 29.696 84.5838 29.9939 83.627 30.1924C82.6883 30.391 81.7405 30.4903 80.7838 30.4903C78.9785 30.4903 77.5614 30.057 76.5325 29.1905C75.5215 28.306 75.0161 27.0513 75.0161 25.4266V17.4385H79.1049V24.2623C79.1049 25.201 79.3215 25.905 79.7548 26.3744C80.188 26.8437 80.9192 27.0784 81.9481 27.0784C82.7063 27.0784 83.4645 26.9972 84.2227 26.8347C84.9809 26.6722 85.8294 26.4285 86.7681 26.1036V17.4385H90.8569V36.7725ZM95.9893 17.4385H99.672V26.7806C99.672 27.2319 99.6629 27.7373 99.6449 28.2969C99.6268 28.8566 99.6088 29.4072 99.5907 29.9487C99.5727 30.4722 99.5546 30.9326 99.5366 31.3297C99.5185 31.7088 99.5005 31.9706 99.4824 32.115H99.5636L108.499 17.4385H113.401V36.7725H109.745V27.4846C109.745 26.9972 109.754 26.4646 109.772 25.887C109.79 25.2912 109.808 24.7226 109.826 24.181C109.862 23.6395 109.89 23.1701 109.908 22.773C109.944 22.3578 109.971 22.087 109.989 21.9606H109.88L100.918 36.7725H95.9893V17.4385ZM134.393 36.7725H130.304V28.4323H122.641V36.7725H118.552V17.4385H122.641V25.0205H130.304V17.4385H134.393V36.7725ZM151.362 36.7725L149.953 32.1691H142.913L141.505 36.7725H137.091L143.915 17.3573H148.924L155.775 36.7725H151.362ZM147.571 24.2352C147.48 23.9283 147.363 23.5402 147.219 23.0708C147.074 22.6015 146.93 22.1231 146.785 21.6357C146.641 21.1483 146.524 20.724 146.433 20.363C146.343 20.724 146.217 21.1753 146.054 21.7169C145.91 22.2404 145.765 22.7459 145.621 23.2333C145.495 23.7027 145.395 24.0366 145.323 24.2352L143.942 28.7302H148.979L147.571 24.2352ZM164.669 17.4385C167.16 17.4385 168.974 17.9801 170.111 19.0632C171.267 20.1283 171.844 21.5996 171.844 23.477C171.844 24.3255 171.718 25.1378 171.465 25.9141C171.213 26.6722 170.788 27.3582 170.193 27.972C169.615 28.5677 168.848 29.0371 167.891 29.3801C166.934 29.7231 165.752 29.8946 164.344 29.8946H162.584V36.7725H158.495V17.4385H164.669ZM164.452 20.7962H162.584V26.5369H163.938C164.714 26.5369 165.382 26.4376 165.941 26.239C166.501 26.0404 166.934 25.7245 167.241 25.2912C167.548 24.858 167.701 24.2984 167.701 23.6124C167.701 22.6556 167.44 21.9516 166.916 21.5003C166.393 21.0309 165.571 20.7962 164.452 20.7962ZM186.253 36.7725L184.845 32.1691H177.805L176.397 36.7725H171.983L178.807 17.3573H183.816L190.667 36.7725H186.253ZM182.462 24.2352C182.372 23.9283 182.255 23.5402 182.11 23.0708C181.966 22.6015 181.822 22.1231 181.677 21.6357C181.533 21.1483 181.415 20.724 181.325 20.363C181.235 20.724 181.109 21.1753 180.946 21.7169C180.802 22.2404 180.657 22.7459 180.513 23.2333C180.386 23.7027 180.287 24.0366 180.215 24.2352L178.834 28.7302H183.871L182.462 24.2352Z"/>
</mask>
<path d="M90.8569 36.7725H86.7681V29.2988C85.6308 29.696 84.5838 29.9939 83.627 30.1924C82.6883 30.391 81.7405 30.4903 80.7838 30.4903C78.9785 30.4903 77.5614 30.057 76.5325 29.1905C75.5215 28.306 75.0161 27.0513 75.0161 25.4266V17.4385H79.1049V24.2623C79.1049 25.201 79.3215 25.905 79.7548 26.3744C80.188 26.8437 80.9192 27.0784 81.9481 27.0784C82.7063 27.0784 83.4645 26.9972 84.2227 26.8347C84.9809 26.6722 85.8294 26.4285 86.7681 26.1036V17.4385H90.8569V36.7725ZM95.9893 17.4385H99.672V26.7806C99.672 27.2319 99.6629 27.7373 99.6449 28.2969C99.6268 28.8566 99.6088 29.4072 99.5907 29.9487C99.5727 30.4722 99.5546 30.9326 99.5366 31.3297C99.5185 31.7088 99.5005 31.9706 99.4824 32.115H99.5636L108.499 17.4385H113.401V36.7725H109.745V27.4846C109.745 26.9972 109.754 26.4646 109.772 25.887C109.79 25.2912 109.808 24.7226 109.826 24.181C109.862 23.6395 109.89 23.1701 109.908 22.773C109.944 22.3578 109.971 22.087 109.989 21.9606H109.88L100.918 36.7725H95.9893V17.4385ZM134.393 36.7725H130.304V28.4323H122.641V36.7725H118.552V17.4385H122.641V25.0205H130.304V17.4385H134.393V36.7725ZM151.362 36.7725L149.953 32.1691H142.913L141.505 36.7725H137.091L143.915 17.3573H148.924L155.775 36.7725H151.362ZM147.571 24.2352C147.48 23.9283 147.363 23.5402 147.219 23.0708C147.074 22.6015 146.93 22.1231 146.785 21.6357C146.641 21.1483 146.524 20.724 146.433 20.363C146.343 20.724 146.217 21.1753 146.054 21.7169C145.91 22.2404 145.765 22.7459 145.621 23.2333C145.495 23.7027 145.395 24.0366 145.323 24.2352L143.942 28.7302H148.979L147.571 24.2352ZM164.669 17.4385C167.16 17.4385 168.974 17.9801 170.111 19.0632C171.267 20.1283 171.844 21.5996 171.844 23.477C171.844 24.3255 171.718 25.1378 171.465 25.9141C171.213 26.6722 170.788 27.3582 170.193 27.972C169.615 28.5677 168.848 29.0371 167.891 29.3801C166.934 29.7231 165.752 29.8946 164.344 29.8946H162.584V36.7725H158.495V17.4385H164.669ZM164.452 20.7962H162.584V26.5369H163.938C164.714 26.5369 165.382 26.4376 165.941 26.239C166.501 26.0404 166.934 25.7245 167.241 25.2912C167.548 24.858 167.701 24.2984 167.701 23.6124C167.701 22.6556 167.44 21.9516 166.916 21.5003C166.393 21.0309 165.571 20.7962 164.452 20.7962ZM186.253 36.7725L184.845 32.1691H177.805L176.397 36.7725H171.983L178.807 17.3573H183.816L190.667 36.7725H186.253ZM182.462 24.2352C182.372 23.9283 182.255 23.5402 182.11 23.0708C181.966 22.6015 181.822 22.1231 181.677 21.6357C181.533 21.1483 181.415 20.724 181.325 20.363C181.235 20.724 181.109 21.1753 180.946 21.7169C180.802 22.2404 180.657 22.7459 180.513 23.2333C180.386 23.7027 180.287 24.0366 180.215 24.2352L178.834 28.7302H183.871L182.462 24.2352Z" fill="#456CEE"/>
<path d="M90.8569 36.7725V37.5323H91.6167V36.7725H90.8569ZM86.7681 36.7725H86.0082V37.5323H86.7681V36.7725ZM86.7681 29.2988H87.5279V28.2287L86.5176 28.5815L86.7681 29.2988ZM83.627 30.1924L83.4726 29.4484L83.4697 29.449L83.627 30.1924ZM76.5325 29.1905L76.0321 29.7624L76.0375 29.7671L76.043 29.7717L76.5325 29.1905ZM75.0161 17.4385V16.6787H74.2562V17.4385H75.0161ZM79.1049 17.4385H79.8647V16.6787H79.1049V17.4385ZM79.7548 26.3744L79.1965 26.8898L79.1965 26.8898L79.7548 26.3744ZM84.2227 26.8347L84.0635 26.0917L84.0635 26.0917L84.2227 26.8347ZM86.7681 26.1036L87.0166 26.8216L87.5279 26.6447V26.1036H86.7681ZM86.7681 17.4385V16.6787H86.0082V17.4385H86.7681ZM90.8569 17.4385H91.6167V16.6787H90.8569V17.4385ZM90.8569 36.0126H86.7681V37.5323H90.8569V36.0126ZM87.5279 36.7725V29.2988H86.0082V36.7725H87.5279ZM86.5176 28.5815C85.4048 28.9701 84.3903 29.258 83.4726 29.4484L83.7814 30.9364C84.7772 30.7297 85.8568 30.4219 87.0186 30.0162L86.5176 28.5815ZM83.4697 29.449C82.5826 29.6367 81.6875 29.7305 80.7838 29.7305V31.2501C81.7935 31.2501 82.794 31.1453 83.7842 30.9358L83.4697 29.449ZM80.7838 29.7305C79.0961 29.7305 77.8732 29.3262 77.0219 28.6093L76.043 29.7717C77.2497 30.7879 78.861 31.2501 80.7838 31.2501V29.7305ZM77.0328 28.6187C76.2211 27.9084 75.7759 26.8823 75.7759 25.4266H74.2562C74.2562 27.2204 74.822 28.7035 76.0321 29.7624L77.0328 28.6187ZM75.7759 25.4266V17.4385H74.2562V25.4266H75.7759ZM75.0161 18.1984H79.1049V16.6787H75.0161V18.1984ZM78.3451 17.4385V24.2623H79.8647V17.4385H78.3451ZM78.3451 24.2623C78.3451 25.3037 78.5841 26.2264 79.1965 26.8898L80.3131 25.859C80.0589 25.5836 79.8647 25.0983 79.8647 24.2623H78.3451ZM79.1965 26.8898C79.8411 27.5881 80.833 27.8383 81.9481 27.8383V26.3186C81.0054 26.3186 80.535 26.0994 80.3131 25.859L79.1965 26.8898ZM81.9481 27.8383C82.761 27.8383 83.5726 27.7511 84.3819 27.5777L84.0635 26.0917C83.3565 26.2433 82.6516 26.3186 81.9481 26.3186V27.8383ZM84.3819 27.5777C85.1774 27.4072 86.0563 27.154 87.0166 26.8216L86.5195 25.3856C85.6024 25.703 84.7844 25.9373 84.0635 26.0917L84.3819 27.5777ZM87.5279 26.1036V17.4385H86.0082V26.1036H87.5279ZM86.7681 18.1984H90.8569V16.6787H86.7681V18.1984ZM90.0971 17.4385V36.7725H91.6167V17.4385H90.0971ZM95.9893 17.4385V16.6787H95.2295V17.4385H95.9893ZM99.672 17.4385H100.432V16.6787H99.672V17.4385ZM99.6449 28.2969L98.8854 28.2724L98.8854 28.2724L99.6449 28.2969ZM99.5907 29.9487L100.35 29.9749L100.35 29.974L99.5907 29.9487ZM99.5366 31.3297L100.296 31.3659L100.296 31.3642L99.5366 31.3297ZM99.4824 32.115L98.7284 32.0207L98.6217 32.8748H99.4824V32.115ZM99.5636 32.115V32.8748H99.9906L100.213 32.5101L99.5636 32.115ZM108.499 17.4385V16.6787H108.073L107.85 17.0434L108.499 17.4385ZM113.401 17.4385H114.161V16.6787H113.401V17.4385ZM113.401 36.7725V37.5323H114.161V36.7725H113.401ZM109.745 36.7725H108.985V37.5323H109.745V36.7725ZM109.772 25.887L110.532 25.9107L110.532 25.91L109.772 25.887ZM109.826 24.181L109.068 24.1305L109.067 24.1431L109.067 24.1557L109.826 24.181ZM109.908 22.773L109.151 22.7071L109.149 22.7228L109.149 22.7385L109.908 22.773ZM109.989 21.9606L110.741 22.0681L110.865 21.2008H109.989V21.9606ZM109.88 21.9606V21.2008H109.452L109.23 21.5672L109.88 21.9606ZM100.918 36.7725V37.5323H101.346L101.568 37.1658L100.918 36.7725ZM95.9893 36.7725H95.2295V37.5323H95.9893V36.7725ZM95.9893 18.1984H99.672V16.6787H95.9893V18.1984ZM98.9121 17.4385V26.7806H100.432V17.4385H98.9121ZM98.9121 26.7806C98.9121 27.222 98.9033 27.7191 98.8854 28.2724L100.404 28.3214C100.423 27.7555 100.432 27.2417 100.432 26.7806H98.9121ZM98.8854 28.2724C98.8674 28.8318 98.8493 29.3821 98.8313 29.9234L100.35 29.974C100.368 29.4322 100.386 28.8813 100.404 28.3214L98.8854 28.2724ZM98.8313 29.9225C98.8134 30.4441 98.7954 30.9015 98.7775 31.2952L100.296 31.3642C100.314 30.9636 100.332 30.5004 100.35 29.9749L98.8313 29.9225ZM98.7776 31.2936C98.7595 31.6744 98.7424 31.909 98.7284 32.0207L100.236 32.2092C100.259 32.0321 100.278 31.7432 100.296 31.3659L98.7776 31.2936ZM99.4824 32.8748H99.5636V31.3552H99.4824V32.8748ZM100.213 32.5101L109.148 17.8337L107.85 17.0434L98.9146 31.7198L100.213 32.5101ZM108.499 18.1984H113.401V16.6787H108.499V18.1984ZM112.641 17.4385V36.7725H114.161V17.4385H112.641ZM113.401 36.0126H109.745V37.5323H113.401V36.0126ZM110.505 36.7725V27.4846H108.985V36.7725H110.505ZM110.505 27.4846C110.505 27.0064 110.514 26.4819 110.532 25.9107L109.013 25.8632C108.994 26.4474 108.985 26.988 108.985 27.4846H110.505ZM110.532 25.91C110.55 25.315 110.568 24.7471 110.586 24.2064L109.067 24.1557C109.049 24.6981 109.031 25.2675 109.013 25.864L110.532 25.91ZM110.584 24.2316C110.621 23.6864 110.648 23.2115 110.667 22.8075L109.149 22.7385C109.131 23.1287 109.104 23.5925 109.068 24.1305L110.584 24.2316ZM110.665 22.8388C110.701 22.4188 110.726 22.1698 110.741 22.0681L109.237 21.8532C109.215 22.0041 109.186 22.2967 109.151 22.7071L110.665 22.8388ZM109.989 21.2008H109.88V22.7205H109.989V21.2008ZM109.23 21.5672L100.267 36.3791L101.568 37.1658L110.531 22.354L109.23 21.5672ZM100.918 36.0126H95.9893V37.5323H100.918V36.0126ZM96.7491 36.7725V17.4385H95.2295V36.7725H96.7491ZM134.393 36.7725V37.5323H135.153V36.7725H134.393ZM130.304 36.7725H129.544V37.5323H130.304V36.7725ZM130.304 28.4323H131.064V27.6725H130.304V28.4323ZM122.641 28.4323V27.6725H121.881V28.4323H122.641ZM122.641 36.7725V37.5323H123.401V36.7725H122.641ZM118.552 36.7725H117.792V37.5323H118.552V36.7725ZM118.552 17.4385V16.6787H117.792V17.4385H118.552ZM122.641 17.4385H123.401V16.6787H122.641V17.4385ZM122.641 25.0205H121.881V25.7803H122.641V25.0205ZM130.304 25.0205V25.7803H131.064V25.0205H130.304ZM130.304 17.4385V16.6787H129.544V17.4385H130.304ZM134.393 17.4385H135.153V16.6787H134.393V17.4385ZM134.393 36.0126H130.304V37.5323H134.393V36.0126ZM131.064 36.7725V28.4323H129.544V36.7725H131.064ZM130.304 27.6725H122.641V29.1922H130.304V27.6725ZM121.881 28.4323V36.7725H123.401V28.4323H121.881ZM122.641 36.0126H118.552V37.5323H122.641V36.0126ZM119.312 36.7725V17.4385H117.792V36.7725H119.312ZM118.552 18.1984H122.641V16.6787H118.552V18.1984ZM121.881 17.4385V25.0205H123.401V17.4385H121.881ZM122.641 25.7803H130.304V24.2606H122.641V25.7803ZM131.064 25.0205V17.4385H129.544V25.0205H131.064ZM130.304 18.1984H134.393V16.6787H130.304V18.1984ZM133.633 17.4385V36.7725H135.153V17.4385H133.633ZM151.362 36.7725L150.635 36.9947L150.799 37.5323H151.362V36.7725ZM149.953 32.1691L150.68 31.9469L150.516 31.4093H149.953V32.1691ZM142.913 32.1691V31.4093H142.351L142.186 31.9469L142.913 32.1691ZM141.505 36.7725V37.5323H142.067L142.232 36.9947L141.505 36.7725ZM137.091 36.7725L136.374 36.5205L136.019 37.5323H137.091V36.7725ZM143.915 17.3573V16.5975H143.377L143.198 17.1054L143.915 17.3573ZM148.924 17.3573L149.641 17.1045L149.462 16.5975H148.924V17.3573ZM155.775 36.7725V37.5323H156.849L156.492 36.5196L155.775 36.7725ZM147.571 24.2352L146.841 24.4496L146.845 24.4623L147.571 24.2352ZM147.219 23.0708L146.492 23.2943L146.492 23.2943L147.219 23.0708ZM146.785 21.6357L146.057 21.8515L146.057 21.8515L146.785 21.6357ZM146.433 20.363L147.17 20.1787L145.696 20.1787L146.433 20.363ZM146.054 21.7169L145.326 21.4986L145.324 21.5067L145.322 21.5148L146.054 21.7169ZM145.621 23.2333L144.892 23.0174L144.89 23.0266L144.887 23.0358L145.621 23.2333ZM145.323 24.2352L144.609 23.9755L144.602 23.9936L144.597 24.012L145.323 24.2352ZM143.942 28.7302L143.216 28.507L142.914 29.49H143.942V28.7302ZM148.979 28.7302V29.49H150.013L149.704 28.5031L148.979 28.7302ZM152.088 36.5502L150.68 31.9469L149.227 32.3914L150.635 36.9947L152.088 36.5502ZM149.953 31.4093H142.913V32.929H149.953V31.4093ZM142.186 31.9469L140.778 36.5502L142.232 36.9947L143.64 32.3914L142.186 31.9469ZM141.505 36.0126H137.091V37.5323H141.505V36.0126ZM137.808 37.0244L144.632 17.6092L143.198 17.1054L136.374 36.5205L137.808 37.0244ZM143.915 18.1171H148.924V16.5975H143.915V18.1171ZM148.208 17.6101L155.059 37.0253L156.492 36.5196L149.641 17.1045L148.208 17.6101ZM155.775 36.0126H151.362V37.5323H155.775V36.0126ZM148.3 24.0208C148.208 23.7097 148.09 23.3183 147.945 22.8474L146.492 23.2943C146.636 23.762 146.753 24.1469 146.842 24.4496L148.3 24.0208ZM147.945 22.8474C147.801 22.3806 147.658 21.9048 147.514 21.4198L146.057 21.8515C146.202 22.3414 146.347 22.8223 146.492 23.2943L147.945 22.8474ZM147.514 21.4198C147.371 20.9394 147.257 20.5261 147.17 20.1787L145.696 20.5473C145.79 20.9219 145.91 21.3572 146.057 21.8515L147.514 21.4198ZM145.696 20.1787C145.61 20.5241 145.487 20.9632 145.326 21.4986L146.782 21.9352C146.946 21.3875 147.076 20.924 147.17 20.5473L145.696 20.1787ZM145.322 21.5148C145.178 22.0341 145.035 22.5349 144.892 23.0174L146.349 23.4492C146.495 22.9569 146.641 22.4468 146.787 21.919L145.322 21.5148ZM144.887 23.0358C144.761 23.504 144.669 23.8103 144.609 23.9755L146.037 24.4949C146.121 24.2629 146.228 23.9014 146.355 23.4308L144.887 23.0358ZM144.597 24.012L143.216 28.507L144.668 28.9533L146.049 24.4583L144.597 24.012ZM143.942 29.49H148.979V27.9704H143.942V29.49ZM149.704 28.5031L148.296 24.0081L146.845 24.4623L148.254 28.9573L149.704 28.5031ZM170.111 19.0632L169.587 19.6135L169.596 19.6219L170.111 19.0632ZM171.465 25.9141L172.186 26.1543L172.188 26.1493L171.465 25.9141ZM170.193 27.972L169.647 27.4428L169.647 27.443L170.193 27.972ZM167.891 29.3801L168.147 30.0953L168.147 30.0953L167.891 29.3801ZM162.584 29.8946V29.1347H161.824V29.8946H162.584ZM162.584 36.7725V37.5323H163.343V36.7725H162.584ZM158.495 36.7725H157.735V37.5323H158.495V36.7725ZM158.495 17.4385V16.6787H157.735V17.4385H158.495ZM162.584 20.7962V20.0364H161.824V20.7962H162.584ZM162.584 26.5369H161.824V27.2967H162.584V26.5369ZM165.941 26.239L165.687 25.5229L165.687 25.5229L165.941 26.239ZM167.241 25.2912L166.621 24.8521L166.621 24.8521L167.241 25.2912ZM166.916 21.5003L166.409 22.066L166.414 22.071L166.42 22.0758L166.916 21.5003ZM164.669 18.1984C167.074 18.1984 168.655 18.7252 169.587 19.6135L170.635 18.513C169.294 17.2351 167.245 16.6787 164.669 16.6787V18.1984ZM169.596 19.6219C170.565 20.5153 171.085 21.7669 171.085 23.477H172.604C172.604 21.4322 171.968 19.7413 170.626 18.5046L169.596 19.6219ZM171.085 23.477C171.085 24.2487 170.97 24.9815 170.743 25.6788L172.188 26.1493C172.466 25.2941 172.604 24.4022 172.604 23.477H171.085ZM170.744 25.6738C170.53 26.3162 170.169 26.905 169.647 27.4428L170.738 28.5012C171.407 27.8114 171.895 27.0283 172.186 26.1543L170.744 25.6738ZM169.647 27.443C169.166 27.9387 168.506 28.3524 167.635 28.6648L168.147 30.0953C169.189 29.7218 170.063 29.1967 170.738 28.501L169.647 27.443ZM167.635 28.6648C166.785 28.9694 165.696 29.1347 164.344 29.1347V30.6544C165.808 30.6544 167.083 30.4768 168.147 30.0953L167.635 28.6648ZM164.344 29.1347H162.584V30.6544H164.344V29.1347ZM161.824 29.8946V36.7725H163.343V29.8946H161.824ZM162.584 36.0126H158.495V37.5323H162.584V36.0126ZM159.255 36.7725V17.4385H157.735V36.7725H159.255ZM158.495 18.1984H164.669V16.6787H158.495V18.1984ZM164.452 20.0364H162.584V21.5561H164.452V20.0364ZM161.824 20.7962V26.5369H163.343V20.7962H161.824ZM162.584 27.2967H163.938V25.777H162.584V27.2967ZM163.938 27.2967C164.775 27.2967 165.533 27.19 166.195 26.9551L165.687 25.5229C165.23 25.6852 164.652 25.777 163.938 25.777V27.2967ZM166.195 26.9551C166.884 26.7106 167.453 26.3064 167.861 25.7304L166.621 24.8521C166.415 25.1426 166.117 25.3702 165.687 25.5229L166.195 26.9551ZM167.861 25.7304C168.282 25.1359 168.461 24.4099 168.461 23.6124H166.942C166.942 24.1869 166.814 24.5801 166.621 24.8521L167.861 25.7304ZM168.461 23.6124C168.461 22.5232 168.16 21.5697 167.412 20.9248L166.42 22.0758C166.719 22.3335 166.942 22.788 166.942 23.6124H168.461ZM167.423 20.9345C166.698 20.2844 165.653 20.0364 164.452 20.0364V21.5561C165.489 21.5561 166.087 21.7775 166.409 22.066L167.423 20.9345ZM186.253 36.7725L185.527 36.9947L185.691 37.5323H186.253V36.7725ZM184.845 32.1691L185.572 31.9469L185.408 31.4093H184.845V32.1691ZM177.805 32.1691V31.4093H177.243L177.078 31.9469L177.805 32.1691ZM176.397 36.7725V37.5323H176.959L177.124 36.9947L176.397 36.7725ZM171.983 36.7725L171.266 36.5205L170.911 37.5323H171.983V36.7725ZM178.807 17.3573V16.5975H178.269L178.09 17.1054L178.807 17.3573ZM183.816 17.3573L184.533 17.1045L184.354 16.5975H183.816V17.3573ZM190.667 36.7725V37.5323H191.741L191.384 36.5196L190.667 36.7725ZM182.462 24.2352L181.733 24.4496L181.737 24.4623L182.462 24.2352ZM182.11 23.0708L181.384 23.2943L181.384 23.2943L182.11 23.0708ZM181.677 21.6357L180.949 21.8515L180.949 21.8515L181.677 21.6357ZM181.325 20.363L182.062 20.1787L180.588 20.1787L181.325 20.363ZM180.946 21.7169L180.218 21.4986L180.216 21.5067L180.214 21.5148L180.946 21.7169ZM180.513 23.2333L179.784 23.0174L179.782 23.0266L179.779 23.0358L180.513 23.2333ZM180.215 24.2352L179.501 23.9755L179.494 23.9936L179.489 24.012L180.215 24.2352ZM178.834 28.7302L178.108 28.507L177.806 29.49H178.834V28.7302ZM183.871 28.7302V29.49H184.905L184.596 28.5031L183.871 28.7302ZM186.98 36.5502L185.572 31.9469L184.119 32.3914L185.527 36.9947L186.98 36.5502ZM184.845 31.4093H177.805V32.929H184.845V31.4093ZM177.078 31.9469L175.67 36.5502L177.124 36.9947L178.532 32.3914L177.078 31.9469ZM176.397 36.0126H171.983V37.5323H176.397V36.0126ZM172.7 37.0244L179.524 17.6092L178.09 17.1054L171.266 36.5205L172.7 37.0244ZM178.807 18.1171H183.816V16.5975H178.807V18.1171ZM183.1 17.6101L189.951 37.0253L191.384 36.5196L184.533 17.1045L183.1 17.6101ZM190.667 36.0126H186.253V37.5323H190.667V36.0126ZM183.191 24.0208C183.1 23.7097 182.982 23.3183 182.837 22.8474L181.384 23.2943C181.528 23.762 181.644 24.1469 181.733 24.4496L183.191 24.0208ZM182.837 22.8474C182.693 22.3806 182.549 21.9048 182.406 21.4198L180.949 21.8515C181.094 22.3414 181.239 22.8223 181.384 23.2943L182.837 22.8474ZM182.406 21.4198C182.263 20.9394 182.149 20.5261 182.062 20.1787L180.588 20.5473C180.682 20.9219 180.802 21.3572 180.949 21.8515L182.406 21.4198ZM180.588 20.1787C180.502 20.5241 180.379 20.9632 180.218 21.4986L181.674 21.9352C181.838 21.3875 181.968 20.924 182.062 20.5473L180.588 20.1787ZM180.214 21.5148C180.07 22.0341 179.927 22.5349 179.784 23.0174L181.241 23.4492C181.387 22.9569 181.533 22.4468 181.679 21.919L180.214 21.5148ZM179.779 23.0358C179.653 23.504 179.561 23.8103 179.501 23.9755L180.929 24.4949C181.013 24.2629 181.12 23.9014 181.247 23.4308L179.779 23.0358ZM179.489 24.012L178.108 28.507L179.56 28.9533L180.941 24.4583L179.489 24.012ZM178.834 29.49H183.871V27.9704H178.834V29.49ZM184.596 28.5031L183.188 24.0081L181.737 24.4623L183.145 28.9573L184.596 28.5031Z" fill="#456CEE" mask="url(#path-43-outside-2_176_3504)"/>
<path d="M75.0776 48.1448L73.9683 44.5225H73.9425C73.9468 44.6088 73.9533 44.7381 73.9619 44.9106C73.9705 45.0831 73.9791 45.2685 73.9877 45.4669C73.9963 45.6609 74.0006 45.8377 74.0006 45.9973V48.1448H73.1299V43.5264H74.4585L75.5484 47.0581H75.5678L76.7222 43.5264H78.0508V48.1448H77.1414V45.9585C77.1414 45.8119 77.1436 45.6437 77.1479 45.454C77.1565 45.2642 77.1629 45.0853 77.1672 44.9171C77.1758 44.7446 77.1823 44.6152 77.1866 44.529H77.1608L75.9741 48.1448H75.0776Z" fill="#456CEE"/>
<path d="M81.8648 48.1448H79.214V43.5264H81.8648V44.3285H80.1879V45.344H81.7487V46.1461H80.1879V47.3362H81.8648V48.1448Z" fill="#456CEE"/>
<path d="M86.4282 43.5264V47.3298H87.0409V49.4902H86.0993V48.1448H83.2164V49.4902H82.2748V47.3298H82.6295C82.7499 47.0883 82.866 46.8339 82.9777 46.5665C83.0895 46.2991 83.1927 46.0124 83.2873 45.7062C83.3862 45.4001 83.4744 45.068 83.5518 44.7101C83.6291 44.3479 83.6936 43.9533 83.7452 43.5264H86.4282ZM84.5192 44.3414C84.4891 44.5656 84.4461 44.805 84.3902 45.0594C84.3343 45.3095 84.2676 45.5661 84.1902 45.8291C84.1172 46.0922 84.0355 46.3509 83.9452 46.6053C83.8549 46.8597 83.7581 47.1012 83.6549 47.3298H85.4543V44.3414H84.5192Z" fill="#456CEE"/>
<path d="M90.399 48.1448H87.7482V43.5264H90.399V44.3285H88.7221V45.344H90.2829V46.1461H88.7221V47.3362H90.399V48.1448Z" fill="#456CEE"/>
<path d="M95.6847 47.3686V49.4902H94.7431V48.1448H91.3572V43.5264H92.331V47.3298H94.0272V43.5264H95.0011V47.3686H95.6847Z" fill="#456CEE"/>
<path d="M96.3958 43.5264H97.2729V45.758C97.2729 45.8658 97.2708 45.9865 97.2665 46.1202C97.2622 46.2539 97.2579 46.3854 97.2536 46.5148C97.2493 46.6398 97.245 46.7498 97.2407 46.8446C97.2364 46.9352 97.2321 46.9977 97.2278 47.0322H97.2471L99.3754 43.5264H100.543V48.1448H99.6721V45.9261C99.6721 45.8097 99.6743 45.6825 99.6786 45.5445C99.6829 45.4022 99.6872 45.2664 99.6915 45.137C99.7001 45.0076 99.7065 44.8955 99.7108 44.8007C99.7194 44.7015 99.7259 44.6368 99.7302 44.6066H99.7044L97.5696 48.1448H96.3958V43.5264Z" fill="#456CEE"/>
<path d="M105.478 48.1448H104.504V46.1525H102.679V48.1448H101.705V43.5264H102.679V45.3375H104.504V43.5264H105.478V48.1448Z" fill="#456CEE"/>
<path d="M108.591 44.2767C108.406 44.2767 108.241 44.3134 108.094 44.3867C107.953 44.46 107.832 44.5656 107.733 44.7036C107.634 44.8373 107.559 45.0012 107.508 45.1952C107.46 45.3893 107.437 45.607 107.437 45.8485C107.437 46.1763 107.475 46.4565 107.553 46.6894C107.634 46.918 107.761 47.0926 107.933 47.2133C108.105 47.3341 108.324 47.3944 108.591 47.3944C108.78 47.3944 108.967 47.3729 109.152 47.3298C109.341 47.2866 109.546 47.2263 109.765 47.1487V47.9701C109.563 48.0521 109.363 48.1124 109.165 48.1512C108.967 48.1901 108.746 48.2095 108.501 48.2095C108.028 48.2095 107.636 48.1124 107.327 47.9184C107.022 47.72 106.796 47.444 106.65 47.0904C106.504 46.7325 106.43 46.3164 106.43 45.8421C106.43 45.4928 106.478 45.1737 106.572 44.8847C106.667 44.5915 106.805 44.3393 106.985 44.128C107.17 43.9167 107.396 43.7528 107.662 43.6364C107.933 43.5199 108.243 43.4617 108.591 43.4617C108.819 43.4617 109.047 43.4919 109.275 43.5523C109.507 43.6083 109.728 43.686 109.939 43.7851L109.623 44.5807C109.451 44.4988 109.277 44.4277 109.101 44.3673C108.929 44.3069 108.759 44.2767 108.591 44.2767Z" fill="#456CEE"/>
<path d="M114.497 48.1448H113.388L111.717 45.8032V48.1448H110.743V43.5264H111.717V45.7644L113.368 43.5264H114.407L112.73 45.745L114.497 48.1448Z" fill="#456CEE"/>
<path d="M115.077 43.5264H115.954V45.758C115.954 45.8658 115.952 45.9865 115.947 46.1202C115.943 46.2539 115.939 46.3854 115.934 46.5148C115.93 46.6398 115.926 46.7498 115.921 46.8446C115.917 46.9352 115.913 46.9977 115.909 47.0322H115.928L118.056 43.5264H119.224V48.1448H118.353V45.9261C118.353 45.8097 118.355 45.6825 118.359 45.5445C118.364 45.4022 118.368 45.2664 118.372 45.137C118.381 45.0076 118.387 44.8955 118.392 44.8007C118.4 44.7015 118.407 44.6368 118.411 44.6066H118.385L116.25 48.1448H115.077V43.5264Z" fill="#456CEE"/>
<path d="M124.094 42.0063C124.073 42.2306 124.011 42.4289 123.907 42.6014C123.804 42.7696 123.643 42.9011 123.424 42.996C123.204 43.0909 122.91 43.1383 122.54 43.1383C122.162 43.1383 121.865 43.093 121.65 43.0025C121.439 42.9076 121.289 42.7761 121.199 42.6079C121.108 42.4397 121.055 42.2392 121.037 42.0063H121.895C121.917 42.2435 121.977 42.4009 122.076 42.4785C122.175 42.5562 122.336 42.595 122.559 42.595C122.744 42.595 122.895 42.554 123.011 42.4721C123.131 42.3858 123.202 42.2306 123.224 42.0063H124.094ZM120.386 43.5264H121.263V45.758C121.263 45.8658 121.261 45.9865 121.257 46.1202C121.252 46.2539 121.248 46.3854 121.244 46.5148C121.239 46.6398 121.235 46.7498 121.231 46.8446C121.227 46.9352 121.222 46.9977 121.218 47.0322H121.237L123.366 43.5264H124.533V48.1448H123.662V45.9261C123.662 45.8097 123.664 45.6825 123.669 45.5445C123.673 45.4022 123.677 45.2664 123.682 45.137C123.69 45.0076 123.697 44.8955 123.701 44.8007C123.71 44.7015 123.716 44.6368 123.72 44.6066H123.695L121.56 48.1448H120.386V43.5264Z" fill="#456CEE"/>
<path d="M131.755 47.3686V49.4902H130.813V48.1448H127.428V43.5264H128.401V47.3298H130.098V43.5264H131.071V47.3686H131.755Z" fill="#456CEE"/>
<path d="M135.117 48.1448H132.466V43.5264H135.117V44.3285H133.44V45.344H135.001V46.1461H133.44V47.3362H135.117V48.1448Z" fill="#456CEE"/>
<path d="M139.848 48.1448H138.874V46.1525H137.049V48.1448H136.075V43.5264H137.049V45.3375H138.874V43.5264H139.848V48.1448Z" fill="#456CEE"/>
<path d="M142.78 48.1448H141.806V44.3414H140.555V43.5264H144.031V44.3414H142.78V48.1448Z" fill="#456CEE"/>
<path d="M146.212 43.5264C146.805 43.5264 147.237 43.6558 147.508 43.9145C147.784 44.1689 147.921 44.5204 147.921 44.9688C147.921 45.1715 147.891 45.3656 147.831 45.551C147.771 45.7321 147.67 45.896 147.528 46.0426C147.39 46.1849 147.207 46.297 146.979 46.3789C146.752 46.4609 146.47 46.5018 146.135 46.5018H145.715V48.1448H144.742V43.5264H146.212ZM146.16 44.3285H145.715V45.6998H146.038C146.223 45.6998 146.382 45.676 146.515 45.6286C146.648 45.5812 146.752 45.5057 146.825 45.4022C146.898 45.2987 146.934 45.165 146.934 45.0012C146.934 44.7726 146.872 44.6045 146.747 44.4966C146.623 44.3845 146.427 44.3285 146.16 44.3285Z" fill="#456CEE"/>
<path d="M150.201 46.3336L151.368 44.8977L152.058 45.2728L151.181 46.3725L152.058 47.4721L151.368 47.8472L150.201 46.4177V46.3336ZM151.794 46.3336L152.961 44.8977L153.651 45.2728L152.774 46.3725L153.651 47.4721L152.961 47.8472L151.794 46.4177V46.3336Z" fill="#456CEE"/>
<path d="M158.264 48.1448H157.29V46.1525H155.465V48.1448H154.491V43.5264H155.465V45.3375H157.29V43.5264H158.264V48.1448Z" fill="#456CEE"/>
<path d="M162.241 48.1448L161.906 47.0452H160.229L159.894 48.1448H158.842L160.468 43.507H161.661L163.293 48.1448H162.241ZM161.338 45.1499C161.317 45.0766 161.289 44.9839 161.255 44.8718C161.22 44.7597 161.186 44.6454 161.151 44.529C161.117 44.4126 161.089 44.3112 161.067 44.225C161.046 44.3112 161.016 44.419 160.977 44.5484C160.943 44.6734 160.908 44.7942 160.874 44.9106C160.844 45.0227 160.82 45.1025 160.803 45.1499L160.474 46.2237H161.674L161.338 45.1499Z" fill="#456CEE"/>
<path d="M167.481 43.5264V47.3298H168.094V49.4902H167.152V48.1448H164.269V49.4902H163.328V47.3298H163.682C163.803 47.0883 163.919 46.8339 164.031 46.5665C164.142 46.2991 164.246 46.0124 164.34 45.7062C164.439 45.4001 164.527 45.068 164.605 44.7101C164.682 44.3479 164.746 43.9533 164.798 43.5264H167.481ZM165.572 44.3414C165.542 44.5656 165.499 44.805 165.443 45.0594C165.387 45.3095 165.32 45.5661 165.243 45.8291C165.17 46.0922 165.088 46.3509 164.998 46.6053C164.908 46.8597 164.811 47.1012 164.708 47.3298H166.507V44.3414H165.572Z" fill="#456CEE"/>
<path d="M171.452 48.1448H168.801V43.5264H171.452V44.3285H169.775V45.344H171.336V46.1461H169.775V47.3362H171.452V48.1448Z" fill="#456CEE"/>
<path d="M173.468 45.745L171.92 43.5264H172.926L174.416 45.7644V43.5264H175.325V45.7644L176.815 43.5264H177.821L176.273 45.745L177.911 48.1448H176.867L175.325 45.8032V48.1448H174.416V45.8032L172.874 48.1448H171.829L173.468 45.745Z" fill="#456CEE"/>
<path d="M182.099 43.5264V47.3298H182.712V49.4902H181.77V48.1448H178.888V49.4902H177.946V47.3298H178.301C178.421 47.0883 178.537 46.8339 178.649 46.5665C178.761 46.2991 178.864 46.0124 178.958 45.7062C179.057 45.4001 179.145 45.068 179.223 44.7101C179.3 44.3479 179.365 43.9533 179.416 43.5264H182.099ZM180.19 44.3414C180.16 44.5656 180.117 44.805 180.061 45.0594C180.005 45.3095 179.939 45.5661 179.861 45.8291C179.788 46.0922 179.707 46.3509 179.616 46.6053C179.526 46.8597 179.429 47.1012 179.326 47.3298H181.125V44.3414H180.19Z" fill="#456CEE"/>
<path d="M186.238 48.1448L185.902 47.0452H184.226L183.89 48.1448H182.839L184.464 43.507H185.657L187.289 48.1448H186.238ZM185.335 45.1499C185.313 45.0766 185.285 44.9839 185.251 44.8718C185.217 44.7597 185.182 44.6454 185.148 44.529C185.113 44.4126 185.085 44.3112 185.064 44.225C185.042 44.3112 185.012 44.419 184.974 44.5484C184.939 44.6734 184.905 44.7942 184.87 44.9106C184.84 45.0227 184.817 45.1025 184.8 45.1499L184.471 46.2237H185.67L185.335 45.1499Z" fill="#456CEE"/>
<path d="M191 46.4177L189.833 47.8472L189.143 47.4721L190.02 46.3725L189.143 45.2728L189.833 44.8977L191 46.3336V46.4177ZM189.407 46.4177L188.24 47.8472L187.55 47.4721L188.427 46.3725L187.55 45.2728L188.24 44.8977L189.407 46.3336V46.4177Z" fill="#456CEE"/>
<defs>
<clipPath id="clip0_176_3504">
<rect x="2.02637" y="1.5127" width="58.4946" height="58.4946" rx="29.2473" fill="white"/>
</clipPath>
</defs>
</svg>
