<svg width="134" height="38" viewBox="0 0 134 38" fill="none" xmlns="http://www.w3.org/2000/svg">
<path d="M0 37.4943V0.505704H10.5162V29.403H26.177V37.4943H0Z" fill="#456CEE"/>
<path d="M61.1187 19C61.1187 23.1179 60.2802 26.5916 58.6031 29.4211C56.9261 32.2386 54.6627 34.3758 51.813 35.8327C48.9633 37.2776 45.7857 38 42.2803 38C38.7497 38 35.5596 37.2715 32.7099 35.8146C29.8728 34.3457 27.6157 32.2025 25.9387 29.385C24.2742 26.5554 23.442 23.0938 23.442 19C23.442 14.8821 24.2742 11.4144 25.9387 8.59696C27.6157 5.76743 29.8728 3.63023 32.7099 2.18536C35.5596 0.728454 38.7497 0 42.2803 0C45.7857 0 48.9633 0.728454 51.813 2.18536C54.6627 3.63023 56.9261 5.76743 58.6031 8.59696C60.2802 11.4144 61.1187 14.8821 61.1187 19ZM50.2999 19C50.2999 16.7845 49.991 14.9183 49.3731 13.4011C48.7678 11.872 47.8663 10.7161 46.6684 9.93346C45.4831 9.13878 44.0204 8.74144 42.2803 8.74144C40.5403 8.74144 39.0713 9.13878 37.8734 9.93346C36.6881 10.7161 35.7865 11.872 35.1687 13.4011C34.5634 14.9183 34.2608 16.7845 34.2608 19C34.2608 21.2155 34.5634 23.0878 35.1687 24.6169C35.7865 26.134 36.6881 27.2899 37.8734 28.0846C39.0713 28.8672 40.5403 29.2586 42.2803 29.2586C44.0204 29.2586 45.4831 28.8672 46.6684 28.0846C47.8663 27.2899 48.7678 26.134 49.3731 24.6169C49.991 23.0878 50.2999 21.2155 50.2999 19Z" fill="#456CEE"/>
<path d="M85.8137 12.7148C85.6498 12.0767 85.3913 11.5168 85.0383 11.0352C84.6852 10.5415 84.2439 10.1261 83.7143 9.78897C83.1973 9.4398 82.5921 9.18093 81.8986 9.01236C81.2176 8.83175 80.4674 8.74144 79.6478 8.74144C77.8825 8.74144 76.3757 9.1448 75.1273 9.95152C73.8916 10.7582 72.9459 11.9202 72.2902 13.4373C71.6472 14.9544 71.3256 16.7845 71.3256 18.9278C71.3256 21.0951 71.6346 22.9493 72.2524 24.4905C72.8703 26.0317 73.7908 27.2117 75.0139 28.0304C76.237 28.8492 77.7564 29.2586 79.5721 29.2586C81.1735 29.2586 82.5038 29.0358 83.563 28.5903C84.6348 28.1448 85.4355 27.5127 85.9651 26.6939C86.4947 25.8752 86.7594 24.9119 86.7594 23.8042L88.5752 23.9848H79.7234V16.8327H96.8974V21.962C96.8974 25.3333 96.1471 28.217 94.6466 30.6131C93.1587 32.9971 91.1034 34.8273 88.4806 36.1036C85.8705 37.3679 82.8758 38 79.4965 38C75.7263 38 72.4163 37.2354 69.5666 35.7063C66.7169 34.1771 64.4914 31.9978 62.89 29.1683C61.3012 26.3387 60.5068 22.9734 60.5068 19.0722C60.5068 16.0139 60.9923 13.3048 61.9632 10.9449C62.9467 8.58492 64.3085 6.59221 66.0486 4.96673C67.7887 3.32921 69.7999 2.09506 72.0822 1.26426C74.3645 0.421419 76.8107 0 79.4208 0C81.7157 0 83.8467 0.313055 85.8137 0.939165C87.7934 1.55323 89.5398 2.43219 91.0529 3.57605C92.5787 4.70786 93.8081 6.05038 94.7412 7.60361C95.6742 9.15684 96.2417 10.8606 96.4434 12.7148H85.8137Z" fill="#456CEE"/>
<path d="M134 19C134 23.1179 133.161 26.5916 131.484 29.4211C129.807 32.2386 127.544 34.3758 124.694 35.8327C121.845 37.2776 118.667 38 115.162 38C111.631 38 108.441 37.2715 105.591 35.8146C102.754 34.3457 100.497 32.2025 98.82 29.385C97.1555 26.5554 96.3233 23.0938 96.3233 19C96.3233 14.8821 97.1555 11.4144 98.82 8.59696C100.497 5.76743 102.754 3.63023 105.591 2.18536C108.441 0.728454 111.631 0 115.162 0C118.667 0 121.845 0.728454 124.694 2.18536C127.544 3.63023 129.807 5.76743 131.484 8.59696C133.161 11.4144 134 14.8821 134 19ZM123.181 19C123.181 16.7845 122.872 14.9183 122.254 13.4011C121.649 11.872 120.748 10.7161 119.55 9.93346C118.364 9.13878 116.902 8.74144 115.162 8.74144C113.422 8.74144 111.953 9.13878 110.755 9.93346C109.569 10.7161 108.668 11.872 108.05 13.4011C107.445 14.9183 107.142 16.7845 107.142 19C107.142 21.2155 107.445 23.0878 108.05 24.6169C108.668 26.134 109.569 27.2899 110.755 28.0846C111.953 28.8672 113.422 29.2586 115.162 29.2586C116.902 29.2586 118.364 28.8672 119.55 28.0846C120.748 27.2899 121.649 26.134 122.254 24.6169C122.872 23.0878 123.181 21.2155 123.181 19Z" fill="#456CEE"/>
</svg>
