<svg width="48" height="48" viewBox="0 0 48 48" fill="none" xmlns="http://www.w3.org/2000/svg">
<path d="M10.8549 15.1145C14.5832 12.8279 19.1163 11 24 11C36.6823 11 47 23.3273 47 24C47 24.6728 36.6823 37 24 37C11.3177 37 1 24.6728 1 24C1 23.6531 3.74288 20.2081 8.13842 16.9518" stroke="#456CEE" stroke-width="1.8" stroke-miterlimit="10" stroke-linecap="round" stroke-linejoin="round"/>
<path d="M16.817 30.8112C15.0189 29.06 13.9092 26.6545 13.9092 23.9998C13.9092 18.6437 18.427 14.3018 24 14.3018C29.5731 14.3018 34.0909 18.6437 34.0909 23.9998C34.0909 29.3559 29.5731 33.6978 24 33.6978C22.3736 33.6978 20.837 33.328 19.4764 32.6711" stroke="#456CEE" stroke-width="1.8" stroke-miterlimit="10" stroke-linecap="round" stroke-linejoin="round"/>
<path d="M26.5823 23.9999C26.5823 25.3704 25.4262 26.4814 24.0002 26.4814C22.5741 26.4814 21.418 25.3704 21.418 23.9999C21.418 22.6293 22.5741 21.5183 24.0002 21.5183C25.4262 21.5183 26.5823 22.6293 26.5823 23.9999Z" stroke="#456CEE" stroke-width="1.8" stroke-miterlimit="10" stroke-linecap="round" stroke-linejoin="round"/>
<path d="M26.8803 16.44C27.3791 16.2143 27.9238 16.0977 28.4751 16.0984C30.5442 16.0984 32.2217 17.7106 32.2217 19.6991C32.2217 21.6877 30.5442 23.2998 28.4751 23.2998C26.406 23.2998 24.7285 21.6877 24.7285 19.6991C24.7285 19.3879 24.7696 19.0859 24.8469 18.7979" stroke="#456CEE" stroke-width="1.8" stroke-miterlimit="10" stroke-linecap="round" stroke-linejoin="round"/>
<path d="M22.6156 18.209C19.8684 18.8132 17.8188 21.1765 17.8188 23.9999C17.8188 27.2808 20.5863 29.9404 24.0001 29.9404C26.9379 29.9404 29.397 27.9707 30.0256 25.3304" stroke="#456CEE" stroke-width="1.8" stroke-miterlimit="10" stroke-linecap="round" stroke-linejoin="round"/>
</svg>
