<svg width="48" height="48" viewBox="0 0 48 48" fill="none" xmlns="http://www.w3.org/2000/svg">
<path d="M34.7881 39.9551L38.2947 39.0214C38.7946 38.8885 39.2602 38.6515 39.6607 38.326" stroke="#456CEE" stroke-width="1.8" stroke-miterlimit="10" stroke-linecap="round" stroke-linejoin="round"/>
<path d="M16.3906 41.1795C17.2787 41.6808 18.0949 42.2987 18.817 43.0165L20.2766 44.4669C22.3336 46.511 25.6686 46.511 27.7257 44.4669L28.666 43.5324" stroke="#456CEE" stroke-width="1.8" stroke-miterlimit="10" stroke-linecap="round" stroke-linejoin="round"/>
<path d="M17.2702 14.49L14.8892 23.3206C14.4106 25.0955 13.2422 26.6087 11.6409 27.5275C10.2299 28.3371 9.05816 29.5015 8.24351 30.9037C7.42887 32.3059 6.99999 33.8965 7 35.5156C7 37.1584 8.11031 38.5963 9.70708 39.0215L13.3202 39.9836" stroke="#456CEE" stroke-width="1.8" stroke-miterlimit="10" stroke-linecap="round" stroke-linejoin="round"/>
<path d="M41.0004 35.3313C40.9685 33.7437 40.5247 32.1912 39.712 30.8241C38.8993 29.457 37.7452 28.3215 36.3614 27.5275C34.7601 26.6087 33.5916 25.0954 33.113 23.3206L28.2348 5.22828C27.7214 3.3241 25.985 2.00004 24.0013 2.00004C22.0176 2.00004 20.2812 3.3241 19.7678 5.22828L18.1318 11.2959" stroke="#456CEE" stroke-width="1.8" stroke-miterlimit="10" stroke-linecap="round" stroke-linejoin="round"/>
<path d="M12.6904 34.6416C13.6823 33.7725 15.2282 33.4178 16.7813 33.8314C19.065 34.4395 20.4995 36.4784 19.9853 38.3855" stroke="#456CEE" stroke-width="1.8" stroke-miterlimit="10" stroke-linecap="round" stroke-linejoin="round"/>
<path d="M28.0166 38.3855C27.5023 36.4784 28.9369 34.4395 31.2206 33.8314C32.7736 33.4178 34.3194 33.7725 35.3114 34.6416" stroke="#456CEE" stroke-width="1.8" stroke-miterlimit="10" stroke-linecap="round" stroke-linejoin="round"/>
</svg>
