<svg width="24" height="24" viewBox="0 0 24 24" fill="none" xmlns="http://www.w3.org/2000/svg">
<path d="M9.58992 5.65152L9.58989 5.65158L9.26199 6.2394C9.24603 6.26803 9.23031 6.2963 9.21479 6.32419C8.90141 6.88743 8.67272 7.29847 8.30796 7.57594L8.30727 7.57646C7.93823 7.8562 7.48718 7.95782 6.87726 8.09522C6.84744 8.10194 6.81724 8.10874 6.78665 8.11566C6.78659 8.11567 6.78653 8.11568 6.78647 8.1157L6.15065 8.25966L6.15046 8.2597C4.90358 8.54152 4.02667 8.74143 3.41948 8.98079C2.82191 9.21635 2.61433 9.44097 2.53471 9.69638C2.45382 9.95729 2.49859 10.2767 2.85351 10.8405C3.21191 11.4099 3.81098 12.1125 4.66015 13.1049L4.66039 13.1052L5.09406 13.6128C5.09417 13.613 5.09428 13.6131 5.09439 13.6132C5.11482 13.6371 5.13498 13.6606 5.1549 13.6838C5.57175 14.1701 5.87552 14.5245 6.01274 14.9697C6.15114 15.4119 6.10549 15.8806 6.04202 16.5324C6.03902 16.5632 6.03598 16.5945 6.03291 16.6262L6.03287 16.6266L5.96691 17.3021C5.9669 17.3022 5.96689 17.3023 5.96688 17.3024C5.83884 18.6269 5.74921 19.5655 5.77974 20.2483C5.81023 20.9302 5.95645 21.2094 6.15847 21.3627C6.35113 21.5087 6.63216 21.568 7.2517 21.3904C7.87753 21.211 8.69979 20.8341 9.86718 20.2968L9.86738 20.2967L10.4626 20.0231L9.58992 5.65152ZM9.58992 5.65152C10.2316 4.50087 10.6862 3.68809 11.0937 3.15601C11.5009 2.62429 11.7665 2.5 12.0002 2.5C12.234 2.5 12.4996 2.62429 12.9068 3.15601C13.3143 3.68809 13.7689 4.50087 14.4105 5.65152L14.4106 5.65158M9.58992 5.65152L14.4106 5.65158M14.4106 5.65158L14.7385 6.2394C14.7385 6.23946 14.7385 6.23952 14.7386 6.23958C14.7545 6.26815 14.7702 6.29635 14.7857 6.32417C15.099 6.88742 15.3277 7.29846 15.6925 7.57594C16.0607 7.85604 16.5131 7.9578 17.1226 8.09489C17.153 8.10172 17.1837 8.10863 17.2148 8.11566C17.2148 8.11566 17.2149 8.11566 17.2149 8.11567C17.215 8.11569 17.2151 8.11571 17.2151 8.11573L17.8508 8.25966C19.0978 8.54201 19.9745 8.7419 20.5815 8.98117C21.1788 9.21658 21.3861 9.44094 21.4657 9.69633C21.5466 9.95659 21.5021 10.2756 21.147 10.8398C20.7885 11.4092 20.1894 12.112 19.3402 13.105L18.9064 13.6119L18.9061 13.6122M14.4106 5.65158L18.9061 13.6122M18.9061 13.6122C18.885 13.6369 18.8641 13.6613 18.8435 13.6854C18.4272 14.1719 18.1246 14.5254 17.9868 14.9685L17.9867 14.9689M18.9061 13.6122L17.9867 14.9689M17.9867 14.9689C17.8493 15.4118 17.8949 15.8801 17.9586 16.5328C17.9615 16.5632 17.9645 16.594 17.9676 16.6252L17.9676 16.6255M17.9867 14.9689L17.9676 16.6255M17.9676 16.6255L18.0336 17.3021L17.9676 16.6255ZM17.8427 21.3619L17.8431 21.3616C18.0444 21.209 18.1905 20.9303 18.2209 20.2482C18.2513 19.5655 18.1616 18.6269 18.0336 17.3025L17.8427 21.3619ZM17.8427 21.3619C17.6495 21.5087 17.3684 21.5682 16.749 21.3906C16.1233 21.2112 15.3014 20.8342 14.1344 20.2968L14.1338 20.2966M17.8427 21.3619L14.1338 20.2966M14.1338 20.2966L13.5379 20.0231M14.1338 20.2966L13.5379 20.0231M13.5379 20.0231C13.5378 20.023 13.5377 20.023 13.5376 20.0229M13.5379 20.0231L13.5376 20.0229M13.5376 20.0229C13.5103 20.0103 13.4834 19.9979 13.4568 19.9856C12.8853 19.7212 12.4611 19.525 12.0002 19.525C11.5394 19.525 11.1152 19.7212 10.5436 19.9856C10.5172 19.9978 10.4905 20.0102 10.4634 20.0227L13.5376 20.0229Z" stroke="#456CEE"/>
</svg>
