<svg width="48" height="48" viewBox="0 0 48 48" fill="none" xmlns="http://www.w3.org/2000/svg">
<g clip-path="url(#clip0_14_2377)">
<path d="M30.5394 6.60938C27.4793 6.60938 24.5394 5.50922 22.1637 3.5806C19.966 1.79645 17.1731 0.717205 14.1289 0.687017" stroke="#456CEE" stroke-width="1.8" stroke-miterlimit="10" stroke-linecap="round" stroke-linejoin="round"/>
<path d="M27.9062 42.2701V45.0155C27.9062 47.059 30.366 48.0767 31.8236 46.6445C34.948 43.5742 36.9664 38.7099 36.9664 33.2339C36.9664 33.1263 36.9656 33.0189 36.9641 32.9117C36.9362 30.9966 37.456 29.1572 38.4054 27.5584" stroke="#456CEE" stroke-width="1.8" stroke-miterlimit="10" stroke-linecap="round" stroke-linejoin="round"/>
<path d="M2.6436 7.40416C1.65594 9.18418 1.10613 11.1737 1.03963 13.2083C0.887477 17.7694 3.092 21.8246 6.52896 24.2507C9.35345 26.2445 11.0872 29.4546 11.037 32.9115C11.0354 33.0189 11.0346 33.1263 11.0347 33.2337C11.0347 38.7097 13.053 43.574 16.1775 46.6442C17.635 48.0764 20.0947 47.0587 20.0947 45.0152V35.3906C20.0947 33.2625 21.7633 31.4636 23.8906 31.4053C26.0977 31.3447 27.906 33.1159 27.906 35.3093V38.9886" stroke="#456CEE" stroke-width="1.8" stroke-miterlimit="10" stroke-linecap="round" stroke-linejoin="round"/>
<path d="M42.2939 23.6199C45.2551 21.1543 47.1005 17.3944 46.9608 13.2085C46.7271 6.20296 40.8803 0.617536 33.8712 0.687098C31.4444 0.711192 29.1772 1.40194 27.2441 2.58497C25.2594 3.79959 22.7407 3.79959 20.7561 2.58497C18.8229 1.40194 16.5557 0.711192 14.1289 0.687098C10.4026 0.650067 7.00495 2.21138 4.60449 4.73465" stroke="#456CEE" stroke-width="1.8" stroke-miterlimit="10" stroke-linecap="round" stroke-linejoin="round"/>
</g>
<defs>
<clipPath id="clip0_14_2377">
<rect width="48" height="48" fill="white"/>
</clipPath>
</defs>
</svg>
