<svg width="48" height="48" viewBox="0 0 48 48" fill="none" xmlns="http://www.w3.org/2000/svg">
<g clip-path="url(#clip0_14_2413)">
<path d="M26.6822 21.9955C26.2844 21.3565 26.074 20.6186 26.0752 19.8659C26.0752 17.637 27.8821 15.8301 30.111 15.8301C32.3399 15.8301 34.1468 17.637 34.1468 19.8659C34.1468 22.0948 32.3399 23.9016 30.111 23.9016C29.8535 23.9016 29.6018 23.8775 29.3577 23.8314" stroke="#456CEE" stroke-width="1.5" stroke-miterlimit="10" stroke-linecap="round" stroke-linejoin="round"/>
<path d="M18.0046 15.3552L15.2148 4.94347C14.699 3.01842 12.4975 2.10661 10.7716 3.10307L9.92578 3.59142" stroke="#456CEE" stroke-width="1.5" stroke-miterlimit="10" stroke-linecap="round" stroke-linejoin="round"/>
<path d="M6.05811 17.2759L9.21306 20.4309" stroke="#456CEE" stroke-width="1.5" stroke-miterlimit="10" stroke-linecap="round" stroke-linejoin="round"/>
<path d="M3.06476 7.55233L2.21895 8.04068C0.492922 9.03714 0.181955 11.3996 1.5912 12.8088L3.75898 14.9766" stroke="#456CEE" stroke-width="1.5" stroke-miterlimit="10" stroke-linecap="round" stroke-linejoin="round"/>
<path d="M17.5959 18.9149C18.4025 21.925 14.7035 24.0605 12.5 21.857" stroke="#456CEE" stroke-width="1.5" stroke-miterlimit="10" stroke-linecap="round" stroke-linejoin="round"/>
<path d="M31.3955 20.2215L36.5752 21.6094" stroke="#456CEE" stroke-width="1.5" stroke-miterlimit="10" stroke-linecap="round" stroke-linejoin="round"/>
<path d="M30.4378 18.5626C31.1605 18.7562 31.5892 19.4989 31.3957 20.2216C31.202 20.9441 30.4593 21.373 29.7367 21.1793C29.0141 20.9857 28.5853 20.2429 28.7789 19.5204C28.9725 18.7978 29.7152 18.369 30.4378 18.5626Z" stroke="#456CEE" stroke-width="1.5" stroke-miterlimit="10" stroke-linecap="round" stroke-linejoin="round"/>
<path d="M4.93404 8.00049L4.12329 8.46858C4.01793 8.52939 3.89274 8.54588 3.77524 8.51441C3.65773 8.48294 3.55753 8.4061 3.49667 8.30077L2.63276 6.80424C2.60264 6.75209 2.58309 6.69451 2.57522 6.63479C2.56735 6.57508 2.57132 6.5144 2.5869 6.45622C2.60249 6.39804 2.62938 6.3435 2.66604 6.29572C2.7027 6.24793 2.74842 6.20783 2.80058 6.17771L3.61142 5.70962C4.20945 5.36434 4.97416 5.56918 5.31944 6.16731L5.39172 6.29246C5.737 6.89049 5.53207 7.65521 4.93404 8.00049Z" stroke="#456CEE" stroke-width="1.5" stroke-miterlimit="10" stroke-linecap="round" stroke-linejoin="round"/>
<path d="M9.37869 5.43431L10.1894 4.96622C10.2416 4.93611 10.2873 4.89602 10.324 4.84823C10.3607 4.80045 10.3876 4.74591 10.4032 4.68773C10.4188 4.62955 10.4227 4.56887 10.4149 4.50915C10.407 4.44944 10.3875 4.39185 10.3573 4.33969L9.49335 2.84316C9.46325 2.791 9.42316 2.74528 9.37538 2.70861C9.32761 2.67194 9.27307 2.64505 9.2149 2.62946C9.15672 2.61388 9.09605 2.60991 9.03634 2.61778C8.97663 2.62566 8.91906 2.64522 8.86691 2.67535L8.05607 3.14344C7.45804 3.48872 7.2531 4.25344 7.59838 4.85147L7.67066 4.97663C8.01594 5.57475 8.78066 5.77959 9.37869 5.43431Z" stroke="#456CEE" stroke-width="1.5" stroke-miterlimit="10" stroke-linecap="round" stroke-linejoin="round"/>
<path d="M42.7326 23.2947C41.24 21.9754 39.4616 21.0205 37.5374 20.5049C37.3786 20.4624 37.2095 20.4846 37.0671 20.5668C36.9248 20.649 36.8209 20.7843 36.7783 20.9431L36.4181 22.2879C36.397 22.3665 36.3916 22.4485 36.4022 22.5292C36.4129 22.6098 36.4393 22.6876 36.4799 22.7581C36.5206 22.8286 36.5748 22.8904 36.6394 22.9399C36.7039 22.9894 36.7776 23.0258 36.8562 23.0468C39.4811 23.7502 41.7191 25.4675 43.0779 27.8209L43.3232 28.2458C45.9789 32.8455 44.4874 38.7777 39.9017 41.4577C35.3012 44.1462 29.376 42.5711 26.715 37.9622L24.9375 34.8834C24.5184 34.1575 24.1962 33.3798 23.9792 32.5701L19.4495 15.665C19.4266 15.5795 19.3871 15.4994 19.3333 15.4292C19.2794 15.3591 19.2123 15.3002 19.1357 15.2559C19.059 15.2117 18.9745 15.183 18.8868 15.1715C18.7991 15.1599 18.7099 15.1658 18.6245 15.1887L17.3837 15.5215C17.2112 15.5678 17.0642 15.6807 16.9749 15.8353C16.8856 15.99 16.8614 16.1738 16.9077 16.3463L20.1872 28.5858C20.2834 28.9447 19.8424 29.1992 19.5797 28.9366L10.6196 19.9765C10.5571 19.914 10.4828 19.8644 10.4011 19.8305C10.3194 19.7967 10.2318 19.7792 10.1433 19.7792C10.0549 19.7792 9.96731 19.7967 9.8856 19.8305C9.80388 19.8644 9.72963 19.914 9.66709 19.9765L8.75875 20.8849C8.69622 20.9475 8.64661 21.0217 8.61277 21.1035C8.57893 21.1852 8.56151 21.2728 8.56152 21.3612C8.56153 21.4497 8.57896 21.5372 8.61282 21.619C8.64668 21.7007 8.6963 21.7749 8.75885 21.8374L21.1341 34.2127C21.7268 34.8054 22.2393 35.4732 22.6585 36.1991L24.3685 39.1613C27.749 45.0163 35.2361 47.145 41.1107 43.7983C47.0093 40.4378 49.0474 32.8972 45.6575 27.0256L45.357 26.5051C45.2055 26.2427 45.0448 25.9859 44.8753 25.7349" stroke="#456CEE" stroke-width="1.5" stroke-miterlimit="10" stroke-linecap="round" stroke-linejoin="round"/>
</g>
<defs>
<clipPath id="clip0_14_2413">
<rect width="48" height="48" fill="white"/>
</clipPath>
</defs>
</svg>
